<svg width="178" height="44" viewBox="0 0 178 44" fill="none" xmlns="http://www.w3.org/2000/svg">
<mask id="path-1-inside-1_211_2337" fill="white">
<path d="M20.0112 21.7647C19.8436 21.7647 19.688 21.7186 19.5497 21.6445V21.6464C19.5497 21.9101 19.4472 22.1578 19.2613 22.3433C19.0753 22.5292 18.8279 22.6317 18.5645 22.6317C18.3944 22.6317 18.2368 22.5845 18.0971 22.5084C18.083 22.7496 17.9865 22.9751 17.8145 23.1473C17.6285 23.3333 17.3811 23.4358 17.1175 23.4358C16.5939 23.4358 16.1686 23.0242 16.138 22.5082C15.976 22.5958 15.7928 22.6417 15.6039 22.6296C15.0887 22.5958 14.6853 22.1507 14.6853 21.6161V17.1845L14.1807 18.0587C13.9885 18.3931 13.6287 18.6007 13.2414 18.6007C13.0526 18.6007 12.8661 18.5512 12.701 18.4565C12.4954 18.3373 12.3483 18.1459 12.2871 17.917C12.2256 17.6879 12.2574 17.4483 12.3763 17.243C12.3765 17.243 14.0274 14.3841 14.1281 14.2085C14.1401 14.1821 14.1742 14.1055 14.2032 14.0402C14.2309 13.9779 14.2547 13.9139 14.2775 13.8496C14.7754 12.4441 16.0081 11.571 17.4949 11.571C19.4255 11.571 20.9963 13.2742 20.9963 15.3678L20.9964 20.7793C20.9964 21.0426 20.8941 21.2901 20.7083 21.4762C20.5223 21.6622 20.2749 21.7647 20.0112 21.7647L20.0112 21.7647ZM17.4949 12.0945C16.2174 12.0945 15.1991 12.8161 14.771 14.0247C14.7436 14.1015 14.715 14.1782 14.6818 14.253C14.5852 14.4697 14.5852 14.4697 14.5579 14.5008L14.5543 14.4977C14.4195 14.752 14.0191 15.4456 12.8296 17.505C12.7808 17.5895 12.7678 17.6875 12.7927 17.7813C12.818 17.8751 12.8785 17.9542 12.9623 18.0025C13.2224 18.1519 13.5786 18.0555 13.7268 17.7972L14.7205 16.0769C14.7798 15.9744 14.8999 15.9241 15.015 15.9552C15.1295 15.9859 15.209 16.0897 15.209 16.2081V21.6163C15.209 21.8714 15.4015 22.0917 15.6382 22.1072C15.7746 22.1145 15.9019 22.0687 15.9975 21.9733C16.0844 21.8863 16.1323 21.7706 16.1323 21.6467V18.1098C16.1323 17.9651 16.2495 17.8479 16.3942 17.8479C16.5388 17.8479 16.6561 17.965 16.6561 18.1098L16.6559 22.4507C16.6559 22.7052 16.863 22.9123 17.1175 22.9123C17.2412 22.9123 17.3573 22.8645 17.4444 22.7775C17.5313 22.6905 17.5792 22.5744 17.5792 22.4507V18.1098C17.5792 17.9651 17.6963 17.8479 17.8411 17.8479C17.9857 17.8479 18.103 17.9649 18.103 18.1098L18.1028 21.6061V21.6467C18.1028 21.9011 18.3099 22.1082 18.5646 22.1082C18.6881 22.1082 18.8039 22.0602 18.8915 21.9729C18.9784 21.8862 19.0263 21.7704 19.0263 21.6466V18.1096C19.0263 17.9649 19.1434 17.8477 19.2882 17.8477C19.4328 17.8477 19.5501 17.9648 19.5501 18.1096L19.5497 20.7794C19.5497 21.0341 19.7568 21.2412 20.0112 21.2412C20.135 21.2412 20.2508 21.1931 20.3377 21.1064C20.4249 21.0191 20.4727 20.903 20.4727 20.7794L20.4728 15.3679C20.4728 13.5632 19.137 12.0946 17.4949 12.0946L17.4949 12.0945Z"/>
</mask>
<path d="M20.0112 21.7647C19.8436 21.7647 19.688 21.7186 19.5497 21.6445V21.6464C19.5497 21.9101 19.4472 22.1578 19.2613 22.3433C19.0753 22.5292 18.8279 22.6317 18.5645 22.6317C18.3944 22.6317 18.2368 22.5845 18.0971 22.5084C18.083 22.7496 17.9865 22.9751 17.8145 23.1473C17.6285 23.3333 17.3811 23.4358 17.1175 23.4358C16.5939 23.4358 16.1686 23.0242 16.138 22.5082C15.976 22.5958 15.7928 22.6417 15.6039 22.6296C15.0887 22.5958 14.6853 22.1507 14.6853 21.6161V17.1845L14.1807 18.0587C13.9885 18.3931 13.6287 18.6007 13.2414 18.6007C13.0526 18.6007 12.8661 18.5512 12.701 18.4565C12.4954 18.3373 12.3483 18.1459 12.2871 17.917C12.2256 17.6879 12.2574 17.4483 12.3763 17.243C12.3765 17.243 14.0274 14.3841 14.1281 14.2085C14.1401 14.1821 14.1742 14.1055 14.2032 14.0402C14.2309 13.9779 14.2547 13.9139 14.2775 13.8496C14.7754 12.4441 16.0081 11.571 17.4949 11.571C19.4255 11.571 20.9963 13.2742 20.9963 15.3678L20.9964 20.7793C20.9964 21.0426 20.8941 21.2901 20.7083 21.4762C20.5223 21.6622 20.2749 21.7647 20.0112 21.7647L20.0112 21.7647ZM17.4949 12.0945C16.2174 12.0945 15.1991 12.8161 14.771 14.0247C14.7436 14.1015 14.715 14.1782 14.6818 14.253C14.5852 14.4697 14.5852 14.4697 14.5579 14.5008L14.5543 14.4977C14.4195 14.752 14.0191 15.4456 12.8296 17.505C12.7808 17.5895 12.7678 17.6875 12.7927 17.7813C12.818 17.8751 12.8785 17.9542 12.9623 18.0025C13.2224 18.1519 13.5786 18.0555 13.7268 17.7972L14.7205 16.0769C14.7798 15.9744 14.8999 15.9241 15.015 15.9552C15.1295 15.9859 15.209 16.0897 15.209 16.2081V21.6163C15.209 21.8714 15.4015 22.0917 15.6382 22.1072C15.7746 22.1145 15.9019 22.0687 15.9975 21.9733C16.0844 21.8863 16.1323 21.7706 16.1323 21.6467V18.1098C16.1323 17.9651 16.2495 17.8479 16.3942 17.8479C16.5388 17.8479 16.6561 17.965 16.6561 18.1098L16.6559 22.4507C16.6559 22.7052 16.863 22.9123 17.1175 22.9123C17.2412 22.9123 17.3573 22.8645 17.4444 22.7775C17.5313 22.6905 17.5792 22.5744 17.5792 22.4507V18.1098C17.5792 17.9651 17.6963 17.8479 17.8411 17.8479C17.9857 17.8479 18.103 17.9649 18.103 18.1098L18.1028 21.6061V21.6467C18.1028 21.9011 18.3099 22.1082 18.5646 22.1082C18.6881 22.1082 18.8039 22.0602 18.8915 21.9729C18.9784 21.8862 19.0263 21.7704 19.0263 21.6466V18.1096C19.0263 17.9649 19.1434 17.8477 19.2882 17.8477C19.4328 17.8477 19.5501 17.9648 19.5501 18.1096L19.5497 20.7794C19.5497 21.0341 19.7568 21.2412 20.0112 21.2412C20.135 21.2412 20.2508 21.1931 20.3377 21.1064C20.4249 21.0191 20.4727 20.903 20.4727 20.7794L20.4728 15.3679C20.4728 13.5632 19.137 12.0946 17.4949 12.0946L17.4949 12.0945Z" fill="#4CAF4F"/>
<path d="M20.0112 21.7647V20.8366H23.2902L20.4976 22.5551L20.0112 21.7647ZM19.5497 21.6445H18.6216V20.0937L19.9883 20.8265L19.5497 21.6445ZM19.2613 22.3433L18.605 21.687L18.6059 21.6861L19.2613 22.3433ZM18.0971 22.5084L17.1706 22.4542L17.256 20.9936L18.5409 21.6933L18.0971 22.5084ZM17.8145 23.1473L18.4711 23.8032L18.4708 23.8036L17.8145 23.1473ZM16.138 22.5082L15.6967 21.6918L16.9781 20.9992L17.0645 22.4532L16.138 22.5082ZM15.6039 22.6296L15.5444 23.5558L15.5431 23.5557L15.6039 22.6296ZM14.6853 17.1845L13.8815 16.7205L15.6134 13.7201V17.1845H14.6853ZM14.1807 18.0587L13.3761 17.5962L13.3769 17.5947L14.1807 18.0587ZM12.701 18.4565L12.2396 19.2618L12.2355 19.2595L12.701 18.4565ZM12.2871 17.917L13.1835 17.6764L13.1837 17.6774L12.2871 17.917ZM12.3763 17.243L11.5731 16.7779L11.8412 16.3149H12.3763V17.243ZM14.1281 14.2085L14.9734 14.5917L14.9551 14.6319L14.9332 14.6702L14.1281 14.2085ZM14.2032 14.0402L13.3552 13.6631L13.3552 13.6631L14.2032 14.0402ZM14.2775 13.8496L15.1523 14.1595L15.1522 14.1598L14.2775 13.8496ZM20.9963 15.3678L20.0682 15.3678V15.3678H20.9963ZM20.9964 20.7793L21.9245 20.7792V20.7793H20.9964ZM20.7083 21.4762L21.3652 22.1319L21.3645 22.1325L20.7083 21.4762ZM20.0112 21.7647V22.6928H16.7322L19.5248 20.9743L20.0112 21.7647ZM17.4949 12.0945V11.1664H18.7253L18.3873 12.3495L17.4949 12.0945ZM14.771 14.0247L15.6458 14.3347L15.6451 14.3367L14.771 14.0247ZM14.6818 14.253L15.5296 14.6305L15.5294 14.631L14.6818 14.253ZM14.5579 14.5008L15.2568 15.1115L14.6497 15.8063L13.9513 15.2032L14.5579 14.5008ZM14.5543 14.4977L13.7343 14.0631L14.2796 13.0341L15.1609 13.7953L14.5543 14.4977ZM12.8296 17.505L13.6333 17.9692L13.6329 17.9698L12.8296 17.505ZM12.7927 17.7813L11.8965 18.0226L11.8958 18.0197L12.7927 17.7813ZM12.9623 18.0025L12.5 18.8073L12.4983 18.8063L12.9623 18.0025ZM13.7268 17.7972L12.9219 17.3352L12.9232 17.333L13.7268 17.7972ZM14.7205 16.0769L13.9168 15.6127L13.9174 15.6118L14.7205 16.0769ZM15.015 15.9552L14.7748 16.8517L14.7725 16.8511L15.015 15.9552ZM15.6382 22.1072L15.5892 23.0341L15.5772 23.0333L15.6382 22.1072ZM15.9975 21.9733L16.6537 22.6295L16.6532 22.6301L15.9975 21.9733ZM16.6561 18.1098H17.5842V18.1098L16.6561 18.1098ZM16.6559 22.4507H15.7278V22.4507L16.6559 22.4507ZM17.4444 22.7775L18.1013 23.4332L18.1 23.4344L17.4444 22.7775ZM18.103 18.1098H19.0311V18.1098L18.103 18.1098ZM18.1028 21.6061H17.1747V21.606L18.1028 21.6061ZM18.8915 21.9729L19.5471 22.6298L19.5465 22.6304L18.8915 21.9729ZM19.5501 18.1096H20.4781V18.1097L19.5501 18.1096ZM19.5497 20.7794H18.6216V20.7793L19.5497 20.7794ZM20.3377 21.1064L20.994 21.7626L20.9933 21.7633L20.3377 21.1064ZM20.4727 20.7794H19.5446V20.7793L20.4727 20.7794ZM20.4728 15.3679H21.4009V15.3679L20.4728 15.3679ZM17.4949 12.0946V13.0227H16.2645L16.6025 11.8396L17.4949 12.0946ZM20.0112 22.6928C19.6695 22.6928 19.3644 22.5982 19.1112 22.4624L19.9883 20.8265C20.0003 20.833 20.0079 20.8354 20.0109 20.8362C20.0135 20.8369 20.0132 20.8366 20.0112 20.8366V22.6928ZM20.4778 21.6445V21.6464H18.6216V21.6445H20.4778ZM20.4778 21.6464C20.4778 22.1555 20.2781 22.64 19.9167 23.0004L18.6059 21.6861C18.6125 21.6795 18.6158 21.6738 18.6177 21.6692C18.6196 21.6646 18.6216 21.6574 18.6216 21.6464H20.4778ZM19.9175 22.9995C19.5574 23.3597 19.0738 23.5598 18.5645 23.5598V21.7036C18.5751 21.7036 18.5821 21.7017 18.5869 21.6997C18.5916 21.6978 18.5978 21.6943 18.605 21.687L19.9175 22.9995ZM18.5645 23.5598C18.2183 23.5598 17.9093 23.463 17.6532 23.3235L18.5409 21.6933C18.553 21.6999 18.5607 21.7024 18.5637 21.7032C18.5663 21.704 18.5661 21.7036 18.5645 21.7036V23.5598ZM19.0236 22.5626C18.9969 23.0194 18.8116 23.4624 18.4711 23.8032L17.1579 22.4914C17.1614 22.488 17.1633 22.4849 17.165 22.4811C17.1669 22.4769 17.1697 22.4684 17.1706 22.4542L19.0236 22.5626ZM18.4708 23.8036C18.1105 24.1638 17.6269 24.3639 17.1175 24.3639V22.5077C17.1283 22.5077 17.1354 22.5057 17.1401 22.5038C17.1449 22.5018 17.151 22.4983 17.1583 22.4911L18.4708 23.8036ZM17.1175 24.3639C16.0929 24.3639 15.2707 23.5597 15.2115 22.5633L17.0645 22.4532C17.0654 22.469 17.0719 22.4828 17.0833 22.4937C17.0889 22.4991 17.0945 22.5025 17.0994 22.5045C17.1037 22.5062 17.1092 22.5077 17.1175 22.5077V24.3639ZM16.5793 23.3247C16.2795 23.4867 15.9241 23.5802 15.5444 23.5558L15.6634 21.7034C15.6634 21.7034 15.6654 21.7036 15.6703 21.7025C15.6755 21.7012 15.6846 21.6983 15.6967 21.6918L16.5793 23.3247ZM15.5431 23.5557C14.5126 23.4881 13.7572 22.6118 13.7572 21.6161H15.6134C15.6134 21.6475 15.6248 21.6716 15.6391 21.6874C15.653 21.7028 15.6625 21.7034 15.6646 21.7035L15.5431 23.5557ZM13.7572 21.6161V17.1845H15.6134V21.6161H13.7572ZM15.4891 17.6484L14.9845 18.5227L13.3769 17.5947L13.8815 16.7205L15.4891 17.6484ZM14.9854 18.5212C14.6267 19.1451 13.9592 19.5288 13.2414 19.5288V17.6726C13.2983 17.6726 13.3503 17.641 13.3761 17.5962L14.9854 18.5212ZM13.2414 19.5288C12.8904 19.5288 12.5449 19.4368 12.2396 19.2618L13.1624 17.6513C13.1874 17.6656 13.2148 17.6726 13.2414 17.6726V19.5288ZM12.2355 19.2595C11.8188 19.0179 11.5156 18.6248 11.3905 18.1566L13.1837 17.6774C13.1829 17.6743 13.1806 17.6687 13.1761 17.6628C13.1717 17.6571 13.1676 17.6542 13.1665 17.6536L12.2355 19.2595ZM11.3907 18.1576C11.2651 17.6897 11.3309 17.1963 11.5731 16.7779L13.1795 17.708C13.1808 17.7057 13.1831 17.7005 13.1841 17.693C13.1851 17.6854 13.1843 17.6794 13.1835 17.6764L11.3907 18.1576ZM12.3763 16.3149C11.921 16.4342 11.5803 16.7658 11.5777 16.7701C11.5769 16.7715 11.5756 16.7737 11.5752 16.7743C11.575 16.7747 11.5746 16.7754 11.5745 16.7756C11.5744 16.7758 11.5742 16.7761 11.5742 16.7761C11.574 16.7764 11.5741 16.7763 11.5744 16.7757C11.5751 16.7746 11.5761 16.7728 11.5777 16.7701C11.5807 16.7648 11.5853 16.7569 11.5913 16.7465C11.6034 16.7255 11.6212 16.6948 11.6438 16.6556C11.6892 16.5771 11.7541 16.4648 11.8322 16.3294C11.9886 16.0586 12.1981 15.6958 12.4107 15.3275C12.8368 14.5896 13.2735 13.833 13.323 13.7467L14.9332 14.6702C14.8819 14.7595 14.4429 15.5201 14.0182 16.2556C13.8056 16.624 13.596 16.9869 13.4396 17.2577C13.3614 17.3931 13.2965 17.5055 13.2511 17.584C13.2285 17.6233 13.2106 17.6541 13.1985 17.6752C13.1924 17.6857 13.1877 17.6939 13.1845 17.6994C13.1829 17.7022 13.1816 17.7044 13.1806 17.7061C13.1801 17.7069 13.1796 17.7078 13.1791 17.7088C13.1789 17.7091 13.1783 17.7101 13.1775 17.7113C13.1771 17.7121 13.1758 17.7143 13.1749 17.7158C13.1723 17.7201 12.8316 18.0517 12.3763 18.1711V16.3149ZM13.2828 13.8252C13.293 13.8027 13.3254 13.73 13.3552 13.6631L15.0512 14.4173C15.0229 14.4809 14.9871 14.5615 14.9734 14.5917L13.2828 13.8252ZM13.3552 13.6631C13.3681 13.6341 13.3824 13.597 13.4027 13.5395L15.1522 14.1598C15.127 14.2309 15.0937 14.3217 15.0512 14.4173L13.3552 13.6631ZM13.4027 13.5398C14.0312 11.7652 15.6134 10.6429 17.4949 10.6429V12.4991C16.4028 12.4991 15.5195 13.123 15.1523 14.1595L13.4027 13.5398ZM17.4949 10.6429C20.0075 10.6429 21.9244 12.8338 21.9244 15.3678H20.0682C20.0682 13.7146 18.8436 12.4991 17.4949 12.4991V10.6429ZM21.9244 15.3677L21.9245 20.7792L20.0683 20.7793L20.0682 15.3678L21.9244 15.3677ZM21.9245 20.7793C21.9245 21.2882 21.7248 21.7715 21.3652 22.1319L20.0514 20.8206C20.0588 20.8132 20.0623 20.807 20.0643 20.8021C20.0664 20.7972 20.0683 20.7901 20.0683 20.7793H21.9245ZM21.3645 22.1325C21.0043 22.4928 20.5207 22.6928 20.0112 22.6928V20.8366C20.0221 20.8366 20.0292 20.8346 20.0339 20.8327C20.0387 20.8307 20.0448 20.8272 20.052 20.82L21.3645 22.1325ZM19.5248 20.9743L19.5248 20.9743L20.4976 22.5551L20.4976 22.5551L19.5248 20.9743ZM17.4949 13.0226C16.6125 13.0226 15.9434 13.4947 15.6458 14.3347L13.8961 13.7148C14.4549 12.1376 15.8223 11.1664 17.4949 11.1664V13.0226ZM15.6451 14.3367C15.6158 14.4188 15.5777 14.5224 15.5296 14.6305L13.8339 13.8756C13.8524 13.834 13.8714 13.7842 13.8969 13.7128L15.6451 14.3367ZM15.5294 14.631C15.4869 14.7263 15.4513 14.8068 15.424 14.8613C15.4071 14.8952 15.3798 14.9473 15.3401 15.0051C15.2998 15.0636 15.2601 15.1078 15.2568 15.1115L13.859 13.8902C13.8612 13.8877 13.8605 13.8885 13.8594 13.8897C13.858 13.8914 13.8544 13.8956 13.8496 13.9014C13.8447 13.9073 13.8386 13.9151 13.8316 13.9242C13.8246 13.9335 13.8175 13.9434 13.8103 13.9537C13.7958 13.9749 13.7846 13.9934 13.7766 14.0074C13.7692 14.0205 13.7646 14.0296 13.7636 14.0316C13.7626 14.0337 13.7632 14.0325 13.7664 14.0257C13.7694 14.0192 13.7738 14.0098 13.78 13.9961C13.7861 13.9825 13.7935 13.966 13.8026 13.9458C13.8116 13.9255 13.822 13.9023 13.8341 13.8751L15.5294 14.631ZM13.9513 15.2032L13.9477 15.2001L15.1609 13.7953L15.1646 13.7984L13.9513 15.2032ZM15.3744 14.9323C15.2291 15.2064 14.8144 15.9241 13.6333 17.9692L12.0259 17.0408C13.2237 14.967 13.6099 14.2977 13.7343 14.0631L15.3744 14.9323ZM13.6329 17.9698C13.7072 17.8415 13.7279 17.6867 13.6897 17.5429L11.8958 18.0197C11.8077 17.6884 11.8543 17.3374 12.0263 17.0402L13.6329 17.9698ZM13.6889 17.54C13.6507 17.3982 13.5568 17.2741 13.4263 17.1988L12.4983 18.8063C12.2001 18.6342 11.9852 18.3521 11.8965 18.0226L13.6889 17.54ZM13.4246 17.1978C13.3189 17.1371 13.2162 17.1375 13.1452 17.1566C13.0745 17.1756 12.9839 17.2272 12.9219 17.3352L14.5318 18.2592C14.1273 18.964 13.2029 19.2111 12.5 18.8073L13.4246 17.1978ZM12.9232 17.333L13.9168 15.6127L15.5241 16.5411L14.5305 18.2614L12.9232 17.333ZM13.9174 15.6118C14.1854 15.1489 14.7326 14.9173 15.2575 15.0594L14.7725 16.8511C15.0671 16.9308 15.3742 16.7999 15.5236 16.5421L13.9174 15.6118ZM15.2552 15.0588C15.7758 15.1983 16.1371 15.6701 16.1371 16.2081H14.2809C14.2809 16.5093 14.4831 16.7736 14.7748 16.8517L15.2552 15.0588ZM16.1371 16.2081V21.6163H14.2809V16.2081H16.1371ZM16.1371 21.6163C16.1371 21.5105 16.0979 21.4144 16.0336 21.3408C15.9694 21.2673 15.8561 21.1915 15.6991 21.1811L15.5772 23.0333C14.7959 22.9819 14.2809 22.3013 14.2809 21.6163H16.1371ZM15.6872 21.1804C15.5775 21.1746 15.4436 21.2148 15.3418 21.3164L16.6532 22.6301C16.3602 22.9226 15.9717 23.0543 15.5892 23.034L15.6872 21.1804ZM15.3412 21.317C15.2531 21.4051 15.2042 21.5257 15.2042 21.6467H17.0604C17.0604 22.0154 16.9157 22.3676 16.6537 22.6295L15.3412 21.317ZM15.2042 21.6467V18.1098H17.0604V21.6467H15.2042ZM15.2042 18.1098C15.2042 17.4525 15.737 16.9198 16.3942 16.9198V18.776C16.7621 18.776 17.0604 18.4777 17.0604 18.1098H15.2042ZM16.3942 16.9198C17.051 16.9198 17.5842 17.452 17.5842 18.1098H15.728C15.728 18.4779 16.0266 18.776 16.3942 18.776V16.9198ZM17.5842 18.1098L17.584 22.4507L15.7278 22.4507L15.728 18.1097L17.5842 18.1098ZM17.584 22.4507C17.584 22.1926 17.3756 21.9842 17.1175 21.9842V23.8404C16.3505 23.8404 15.7278 23.2178 15.7278 22.4507H17.584ZM17.1175 21.9842C16.9968 21.9842 16.8767 22.0329 16.7888 22.1206L18.1 23.4344C17.8379 23.696 17.4856 23.8404 17.1175 23.8404V21.9842ZM16.7875 22.1219C16.6998 22.2098 16.6511 22.3299 16.6511 22.4507H18.5073C18.5073 22.8188 18.3628 23.1711 18.1013 23.4332L16.7875 22.1219ZM16.6511 22.4507V18.1098H18.5073V22.4507H16.6511ZM16.6511 18.1098C16.6511 17.4529 17.1833 16.9198 17.8411 16.9198V18.7759C18.2092 18.7759 18.5073 18.4773 18.5073 18.1098H16.6511ZM17.8411 16.9198C18.4979 16.9198 19.0311 17.452 19.0311 18.1098H17.1749C17.1749 18.4779 17.4735 18.7759 17.8411 18.7759V16.9198ZM19.0311 18.1098L19.0309 21.6061L17.1747 21.606L17.1749 18.1097L19.0311 18.1098ZM19.0309 21.6061V21.6467H17.1747V21.6061H19.0309ZM19.0309 21.6467C19.0309 21.3881 18.8221 21.1801 18.5646 21.1801V23.0363C17.7978 23.0363 17.1747 22.4141 17.1747 21.6467H19.0309ZM18.5646 21.1801C18.4413 21.1801 18.3219 21.2303 18.2364 21.3154L19.5465 22.6304C19.2859 22.89 18.9349 23.0363 18.5646 23.0363V21.1801ZM18.2358 21.316C18.147 21.4046 18.0982 21.5257 18.0982 21.6466H19.9544C19.9544 22.015 19.8097 22.3677 19.5471 22.6298L18.2358 21.316ZM18.0982 21.6466V18.1096H19.9544V21.6466H18.0982ZM18.0982 18.1096C18.0982 17.4527 18.6304 16.9196 19.2882 16.9196V18.7758C19.6563 18.7758 19.9544 18.4771 19.9544 18.1096H18.0982ZM19.2882 16.9196C19.945 16.9196 20.4781 17.4518 20.4781 18.1096H18.622C18.622 18.4777 18.9206 18.7758 19.2882 18.7758V16.9196ZM20.4781 18.1097L20.4778 20.7795L18.6216 20.7793L18.622 18.1095L20.4781 18.1097ZM20.4778 20.7794C20.4778 20.5219 20.2699 20.3131 20.0112 20.3131V22.1693C19.2438 22.1693 18.6216 21.5462 18.6216 20.7794H20.4778ZM20.0112 20.3131C19.8894 20.3131 19.7693 20.3624 19.6821 20.4495L20.9933 21.7633C20.7322 22.0239 20.3806 22.1693 20.0112 22.1693V20.3131ZM19.6814 20.4501C19.5931 20.5385 19.5446 20.6591 19.5446 20.7794H21.4008C21.4008 21.1469 21.2568 21.4998 20.994 21.7626L19.6814 20.4501ZM19.5446 20.7793L19.5447 15.3679L21.4009 15.3679L21.4008 20.7794L19.5446 20.7793ZM19.5447 15.3679C19.5447 13.9912 18.5437 13.0227 17.4949 13.0227V11.1665C19.7302 11.1665 21.4009 13.1352 21.4009 15.3679H19.5447ZM16.6025 11.8396L16.6025 11.8396L18.3873 12.3495L18.3873 12.3496L16.6025 11.8396Z" fill="#4CAF4F" mask="url(#path-1-inside-1_211_2337)"/>
<path d="M11.5286 26.7395C11.4043 26.8143 11.2436 26.7739 11.1693 26.6498C11.0949 26.5258 11.1352 26.3649 11.259 26.2905M11.5286 26.7395L13.7912 23.695C14.0098 23.5636 14.2981 23.6154 14.4329 23.8104M11.5286 26.7395L14.5615 24.92H14.5617L14.562 24.9198M11.5286 26.7395L15.726 25.2981C15.8319 25.2345 15.9067 25.1338 15.9366 25.0143M11.259 26.2905L14.2921 24.471C14.398 24.4073 14.4729 24.3065 14.5028 24.1873M11.259 26.2905L11.2897 26.3417L11.3937 26.515L11.3939 26.5154L11.4408 26.5935L11.4977 26.6884L11.4979 26.6883L11.4979 26.6883L11.4982 26.6882M11.259 26.2905L11.2898 26.3416M14.5028 24.1873C14.5356 24.0564 14.5107 23.9226 14.4329 23.8104M14.5028 24.1873L14.5776 24.206L14.5705 24.0521C14.5656 23.9462 14.5346 23.8522 14.4822 23.7767L14.482 23.7765L14.4329 23.8104M14.5028 24.1873L14.5776 24.206L14.585 24.3648L14.4332 24.4559H14.433L14.3228 24.5221L14.3227 24.5221L14.3227 24.5221L11.2899 26.3416M14.4329 23.8104L14.482 23.7764L12.2427 27.9289C12.3379 27.8716 12.3694 27.7478 12.3117 27.6516C12.2544 27.5563 12.1301 27.5249 12.0344 27.5823L15.0673 25.7629C15.137 25.721 15.21 25.6895 15.2846 25.6677L15.755 25.3465L15.755 25.3465L15.7809 25.3288C15.8913 25.2535 15.9643 25.149 15.9943 25.0288L15.9943 25.0287L15.9366 25.0143M11.2899 26.3416C11.3853 26.2845 11.5096 26.3154 11.5671 26.4109C11.5673 26.4111 11.5674 26.4113 11.5675 26.4115C11.6247 26.5076 11.5932 26.631 11.4982 26.6882M11.2899 26.3416C11.2899 26.3416 11.2898 26.3416 11.2898 26.3416M11.2899 26.3416L11.2898 26.3416M11.4982 26.6882L14.5308 24.8689L14.5308 24.8689L14.531 24.8688C14.5311 24.8687 14.5312 24.8687 14.5313 24.8686L14.5615 24.919L14.5617 24.9193L14.562 24.9198M11.4982 26.6882L11.3942 26.5152L11.394 26.5149L11.3588 26.4564L11.2898 26.3416M14.562 24.9198V24.8493C14.6205 24.811 14.6741 24.7666 14.7219 24.717L15.2211 24.4564L15.2211 24.4564L15.2488 24.442C15.329 24.4001 15.4099 24.3805 15.4868 24.3805C15.5284 24.3805 15.5713 24.3857 15.6149 24.3965C15.615 24.3965 15.615 24.3965 15.615 24.3965C15.6152 24.3965 15.6153 24.3966 15.6154 24.3966L15.7131 24.0042M14.562 24.9198L15.2511 24.5064C15.3567 24.4431 15.4803 24.4246 15.6005 24.4544C15.7201 24.4842 15.821 24.559 15.8844 24.6648C15.9479 24.7707 15.9664 24.8949 15.9366 25.0143M15.7131 24.0042C15.7131 24.0042 15.7131 24.0042 15.7131 24.0042M15.7131 24.0042C15.9523 24.064 16.1556 24.2149 16.2823 24.4259L16.3334 24.3953M15.7131 24.0042L15.7276 23.9463M15.7131 24.0042L15.6151 24.3965C15.7508 24.4304 15.8633 24.5138 15.9354 24.634C15.9354 24.634 15.9355 24.6341 15.9355 24.6342C15.9355 24.6342 15.9355 24.6342 15.9355 24.6342C16.0078 24.7549 16.0282 24.8934 15.9944 25.0286L15.9943 25.0287L15.9366 25.0143M15.7131 24.0042C15.713 24.0042 15.713 24.0042 15.7129 24.0042L15.7124 24.004C15.6407 23.9862 15.568 23.9771 15.4957 23.9765M15.7131 24.0042L15.7276 23.9463M15.2755 26.1095L15.5371 25.9526L15.8068 26.1117C15.8876 26.1594 15.9487 26.2191 15.99 26.2881L15.9901 26.2883C15.9902 26.2884 15.9902 26.2884 15.9903 26.2885L15.9393 26.3191M15.2755 26.1095L16.0493 26.6832C16.083 26.5475 16.0625 26.4091 15.9903 26.2886L15.9393 26.3191M15.2755 26.1095L15.3062 26.1607M15.2755 26.1095L15.2755 26.1096L15.3062 26.1607M15.9393 26.3191C15.8083 26.1009 15.5241 26.0299 15.3062 26.1607M15.9393 26.3191C16.003 26.4249 16.0215 26.5492 15.9917 26.6688L15.3062 26.1607M16.3815 26.0388C16.3838 26.0424 16.386 26.0461 16.3881 26.0497L16.3815 26.0388ZM16.3815 26.0388C16.3659 26.0511 16.3499 26.063 16.3338 26.0746C16.3348 26.0764 16.3359 26.0781 16.337 26.0799L16.3815 26.0388ZM16.3093 25.3311C16.3427 25.267 16.3688 25.1985 16.3868 25.1268L16.3093 25.3311ZM16.3093 25.3311C16.326 25.3414 16.3425 25.3521 16.3588 25.3632C16.3961 25.2939 16.425 25.2196 16.4445 25.1412C16.5083 24.8861 16.4688 24.6213 16.3334 24.3953M16.3093 25.3311L16.3868 25.1267C16.4465 24.8876 16.4089 24.6373 16.2825 24.4263L16.2823 24.4261C16.2823 24.426 16.2823 24.426 16.2823 24.426L16.3334 24.3953M16.3334 24.3953C16.1981 24.1697 15.9829 24.0101 15.7276 23.9463M15.7276 23.9463L15.4905 23.9165M15.4905 23.9165C15.4926 23.9365 15.4944 23.9565 15.4957 23.9765M15.4905 23.9165C15.4893 23.9165 15.488 23.9165 15.4868 23.9165C15.3299 23.9165 15.1757 23.9567 15.034 24.0306M15.4905 23.9165L15.034 24.0306M15.4957 23.9765C15.4965 23.9874 15.4971 23.9982 15.4976 24.0091L15.4868 24.0096L15.1987 24.023M15.4957 23.9765C15.4928 23.9765 15.4898 23.9764 15.4868 23.9764C15.3889 23.9765 15.2918 23.9922 15.1987 24.023M15.1987 24.023L15.034 24.0306M15.1987 24.023C15.1515 24.0386 15.1053 24.0581 15.0606 24.0814C15.0443 24.0899 15.0283 24.0989 15.0125 24.1084L15.0123 24.1085L14.9793 24.1283M15.034 24.0306L14.7696 24.2541L14.7696 24.2541L14.9529 24.3C14.9529 24.3 14.9529 24.3 14.9529 24.3001C14.9672 24.243 14.976 24.1855 14.9793 24.1283M15.034 24.0306L14.9632 23.8949M15.034 24.0306C15.0267 23.8725 14.985 23.7168 14.905 23.5778C14.8868 23.5859 14.8688 23.5944 14.851 23.6032M14.9793 24.1283C14.9812 24.0964 14.9814 24.0647 14.98 24.0331C14.9779 23.9866 14.9723 23.9404 14.9632 23.8949M14.9793 24.1283L14.9632 23.8949M14.9632 23.8949L14.8193 23.6192C14.8298 23.6138 14.8404 23.6084 14.851 23.6032M14.9632 23.8949L14.8144 23.5462C14.8273 23.5649 14.8395 23.5839 14.851 23.6032M14.9632 23.8949C14.9428 23.7929 14.905 23.6944 14.851 23.6032M16.0426 25.712L16.1219 25.5776C16.0876 25.6097 16.0506 25.6394 16.0113 25.6662C15.9962 25.6765 15.9807 25.6865 15.9649 25.696L15.9647 25.6961L15.9312 25.7162L16.0426 25.712ZM8.63179 23.5524L8.57903 23.5246C8.56934 23.5421 8.54519 23.5856 8.50952 23.6499C8.50069 23.6658 8.49115 23.683 8.48095 23.7013C8.49914 23.7104 8.51748 23.7184 8.53585 23.7253C8.56722 23.6688 8.5992 23.6112 8.63179 23.5524ZM12.7788 28.8231C12.7787 28.8231 12.7787 28.8231 12.7786 28.8231L12.7788 28.8231Z" fill="#4CAF4F" stroke="#4CAF4F" stroke-width="0.928093"/>
<path d="M24.4805 24.3886L24.4805 24.3886L24.4805 24.3886ZM24.4805 24.3886C24.3833 24.2144 24.3872 23.9999 24.4902 23.8282L24.4805 24.3886ZM18.7389 23.9763C18.6664 23.9769 18.5935 23.9861 18.5216 24.0041L18.7389 23.9763ZM18.7389 23.9763C18.7403 23.9564 18.742 23.9364 18.7442 23.9164L18.7389 23.9763ZM24.0629 24.714L24.0235 24.643L24.0629 24.714ZM22.9447 26.3415C22.9446 26.3415 22.9445 26.3414 22.9444 26.3413L22.9446 26.3414L22.9447 26.3415ZM21.4559 28.8235C21.4557 28.8234 21.4556 28.8233 21.4555 28.8233L21.4559 28.8235ZM21.4554 28.8232L21.4555 28.8233L21.4554 28.8232Z" fill="#4CAF4F" stroke="#4CAF4F" stroke-width="0.928093"/>
<g clip-path="url(#clip0_211_2337)">
<path d="M45.7871 18.0204V15.6602L51.7047 6.33746H53.7395V9.60424H52.5353L48.8048 15.508V15.6187H57.2139V18.0204H45.7871ZM52.5906 20.512V17.3006L52.646 16.2555V6.33746H55.456V20.512H52.5906ZM64.6507 20.7058C63.9217 20.7011 63.218 20.5789 62.5398 20.3389C61.8661 20.099 61.2617 19.7091 60.7264 19.1693C60.1912 18.6294 59.7667 17.9142 59.4529 17.0237C59.1438 16.1332 58.9892 15.0396 58.9892 13.7431C58.9938 12.5526 59.13 11.4891 59.3976 10.5524C59.6698 9.61116 60.0574 8.81292 60.5603 8.15772C61.0679 7.50252 61.6746 7.00419 62.3806 6.66275C63.0865 6.31669 63.8779 6.14367 64.7545 6.14367C65.7004 6.14367 66.5356 6.32823 67.26 6.69736C67.9844 7.06187 68.5658 7.55789 69.0041 8.1854C69.4471 8.81292 69.7147 9.51657 69.807 10.2964H66.8516C66.7363 9.80264 66.4941 9.41506 66.1249 9.1336C65.7558 8.85214 65.299 8.71141 64.7545 8.71141C63.8317 8.71141 63.1304 9.11284 62.6505 9.91569C62.1753 10.7185 61.933 11.8098 61.9238 13.1894H62.0207C62.2329 12.7695 62.519 12.4119 62.8789 12.1166C63.2434 11.8167 63.6564 11.5883 64.1178 11.4314C64.5838 11.2699 65.0752 11.1892 65.592 11.1892C66.4318 11.1892 67.1792 11.3876 67.8344 11.7844C68.4896 12.1766 69.0064 12.7164 69.3848 13.4039C69.7631 14.0914 69.9523 14.8782 69.9523 15.7641C69.9523 16.7238 69.7285 17.5774 69.281 18.3249C68.838 19.0724 68.2174 19.6584 67.4192 20.0829C66.6256 20.5027 65.7027 20.7104 64.6507 20.7058ZM64.6369 18.3526C65.0983 18.3526 65.5112 18.2418 65.8758 18.0204C66.2403 17.7989 66.5263 17.499 66.734 17.1206C66.9416 16.7422 67.0454 16.3177 67.0454 15.8471C67.0454 15.3765 66.9416 14.9543 66.734 14.5805C66.531 14.2068 66.2495 13.9092 65.8896 13.6877C65.5297 13.4662 65.119 13.3555 64.6576 13.3555C64.3116 13.3555 63.9909 13.4201 63.6956 13.5493C63.4049 13.6785 63.1488 13.8584 62.9274 14.0891C62.7105 14.3198 62.5398 14.5875 62.4152 14.892C62.2906 15.1919 62.2283 15.5126 62.2283 15.854C62.2283 16.3108 62.3321 16.7284 62.5398 17.1068C62.752 17.4851 63.0381 17.7873 63.398 18.0134C63.7625 18.2395 64.1755 18.3526 64.6369 18.3526ZM74.7193 18.574L74.6431 19.3354C74.5831 19.9444 74.4678 20.5512 74.2971 21.1556C74.131 21.7647 73.9556 22.3161 73.7711 22.8098C73.5911 23.3035 73.4458 23.6911 73.335 23.9725H71.4248C71.494 23.7003 71.5886 23.3196 71.7086 22.8305C71.8285 22.3461 71.9416 21.8016 72.0477 21.1972C72.1538 20.5927 72.2207 19.9767 72.2484 19.3492L72.283 18.574H74.7193ZM82.1699 20.7058C81.1363 20.7058 80.2158 20.5281 79.4083 20.1728C78.6055 19.8129 77.971 19.3192 77.505 18.6917C77.0436 18.0596 76.806 17.3305 76.7921 16.5046H79.8098C79.8282 16.8507 79.9413 17.1552 80.1489 17.4182C80.3611 17.6766 80.6426 17.8773 80.9933 18.0204C81.3439 18.1634 81.7384 18.2349 82.1768 18.2349C82.6336 18.2349 83.0373 18.1542 83.388 17.9927C83.7387 17.8312 84.0132 17.6074 84.2116 17.3213C84.41 17.0352 84.5092 16.7053 84.5092 16.3316C84.5092 15.9532 84.4031 15.6187 84.1908 15.328C83.9832 15.0327 83.6833 14.802 83.2911 14.6359C82.9035 14.4698 82.4421 14.3867 81.9069 14.3867H80.5849V12.1858H81.9069C82.359 12.1858 82.7582 12.1074 83.1042 11.9505C83.4549 11.7936 83.7271 11.5768 83.9209 11.2999C84.1147 11.0185 84.2116 10.6909 84.2116 10.3171C84.2116 9.96183 84.1262 9.65038 83.9555 9.38276C83.7894 9.11053 83.5541 8.89828 83.2496 8.74602C82.9497 8.59375 82.599 8.51762 82.1976 8.51762C81.7915 8.51762 81.4201 8.59144 81.0832 8.73909C80.7464 8.88213 80.4765 9.08746 80.2735 9.35508C80.0705 9.62269 79.962 9.93645 79.9482 10.2964H77.0759C77.0897 9.47966 77.3228 8.75986 77.7749 8.13696C78.2271 7.51405 78.8362 7.02726 79.6021 6.67659C80.3727 6.32131 81.2424 6.14367 82.2114 6.14367C83.1896 6.14367 84.0455 6.32131 84.7791 6.67659C85.5128 7.03188 86.0826 7.51174 86.4887 8.11619C86.8993 8.71602 87.1023 9.38968 87.0977 10.1372C87.1023 10.9308 86.8555 11.5929 86.3572 12.1235C85.8635 12.6542 85.2198 12.991 84.4262 13.134V13.2448C85.4689 13.3786 86.2626 13.7408 86.807 14.3314C87.3561 14.9174 87.6283 15.651 87.6237 16.5323C87.6283 17.3398 87.3953 18.0573 86.9247 18.6848C86.4587 19.3123 85.815 19.806 84.9937 20.1659C84.1724 20.5258 83.2311 20.7058 82.1699 20.7058ZM89.7779 20.512V18.3526L94.8235 13.6808C95.2526 13.2655 95.6125 12.8918 95.9032 12.5596C96.1985 12.2274 96.4222 11.9021 96.5745 11.5837C96.7268 11.2607 96.8029 10.9123 96.8029 10.5386C96.8029 10.1233 96.7083 9.76573 96.5191 9.46582C96.33 9.16128 96.0716 8.92827 95.744 8.76678C95.4164 8.60067 95.0449 8.51762 94.6297 8.51762C94.1959 8.51762 93.8176 8.60529 93.4946 8.78062C93.1716 8.95596 92.9224 9.20743 92.7471 9.53503C92.5718 9.86263 92.4841 10.2525 92.4841 10.7047H89.6395C89.6395 9.77727 89.8495 8.97211 90.2693 8.28922C90.6892 7.60633 91.2775 7.07802 92.0342 6.70428C92.7909 6.33054 93.663 6.14367 94.6504 6.14367C95.6655 6.14367 96.5491 6.32362 97.3012 6.68351C98.0579 7.0388 98.6462 7.53251 99.0661 8.16464C99.486 8.79677 99.6959 9.52118 99.6959 10.3379C99.6959 10.8731 99.5898 11.4014 99.3776 11.9228C99.1699 12.4442 98.7985 13.0233 98.2633 13.66C97.728 14.2922 96.9736 15.0512 96 15.9371L93.9306 17.965V18.0619H99.8828V20.512H89.7779ZM107.342 20.7058C106.276 20.7058 105.328 20.5327 104.497 20.1867C103.672 19.836 103.023 19.3584 102.553 18.754C102.082 18.1495 101.847 17.4644 101.847 16.6984C101.847 16.1078 101.98 15.5657 102.248 15.0719C102.52 14.5736 102.889 14.1607 103.355 13.8331C103.822 13.5008 104.343 13.2886 104.92 13.1963V13.0994C104.163 12.9472 103.549 12.5803 103.079 11.999C102.608 11.413 102.373 10.7324 102.373 9.95722C102.373 9.22358 102.587 8.57068 103.016 7.99853C103.445 7.42177 104.034 6.96959 104.781 6.64199C105.533 6.30977 106.387 6.14367 107.342 6.14367C108.297 6.14367 109.148 6.30977 109.896 6.64199C110.648 6.9742 111.239 7.42869 111.668 8.00545C112.097 8.5776 112.314 9.22819 112.318 9.95722C112.314 10.737 112.074 11.4176 111.599 11.999C111.123 12.5803 110.514 12.9472 109.771 13.0994V13.1963C110.339 13.2886 110.853 13.5008 111.315 13.8331C111.781 14.1607 112.15 14.5736 112.422 15.0719C112.699 15.5657 112.84 16.1078 112.844 16.6984C112.84 17.4644 112.602 18.1495 112.132 18.754C111.661 19.3584 111.01 19.836 110.18 20.1867C109.354 20.5327 108.408 20.7058 107.342 20.7058ZM107.342 18.5048C107.817 18.5048 108.233 18.4195 108.588 18.2487C108.943 18.0734 109.22 17.8335 109.418 17.5289C109.621 17.2198 109.723 16.8645 109.723 16.4631C109.723 16.0524 109.619 15.6902 109.411 15.3765C109.204 15.0581 108.922 14.8089 108.567 14.629C108.212 14.4444 107.803 14.3521 107.342 14.3521C106.885 14.3521 106.477 14.4444 106.117 14.629C105.757 14.8089 105.473 15.0581 105.266 15.3765C105.063 15.6902 104.961 16.0524 104.961 16.4631C104.961 16.8645 105.06 17.2198 105.259 17.5289C105.457 17.8335 105.736 18.0734 106.096 18.2487C106.456 18.4195 106.871 18.5048 107.342 18.5048ZM107.342 12.172C107.739 12.172 108.092 12.0912 108.401 11.9297C108.71 11.7682 108.952 11.5445 109.128 11.2584C109.303 10.9723 109.391 10.6424 109.391 10.2687C109.391 9.89954 109.303 9.57655 109.128 9.29971C108.952 9.01825 108.712 8.79908 108.408 8.6422C108.103 8.48071 107.748 8.39996 107.342 8.39996C106.941 8.39996 106.585 8.48071 106.276 8.6422C105.967 8.79908 105.725 9.01825 105.549 9.29971C105.379 9.57655 105.293 9.89954 105.293 10.2687C105.293 10.6424 105.381 10.9723 105.556 11.2584C105.732 11.5445 105.974 11.7682 106.283 11.9297C106.592 12.0912 106.945 12.172 107.342 12.172Z" fill="#4D4D4D"/>
<path d="M52.3514 32.9434H51.3705C51.3125 32.6613 51.211 32.4134 51.066 32.1999C50.9236 31.9863 50.7496 31.807 50.5439 31.662C50.3409 31.5144 50.1155 31.4036 49.8676 31.3298C49.6198 31.256 49.3614 31.2191 49.0925 31.2191C48.6021 31.2191 48.1578 31.343 47.7597 31.5908C47.3642 31.8387 47.0491 32.2038 46.8144 32.6863C46.5824 33.1688 46.4664 33.7608 46.4664 34.4621C46.4664 35.1634 46.5824 35.7554 46.8144 36.2379C47.0491 36.7204 47.3642 37.0855 47.7597 37.3334C48.1578 37.5812 48.6021 37.7052 49.0925 37.7052C49.3614 37.7052 49.6198 37.6682 49.8676 37.5944C50.1155 37.5206 50.3409 37.4112 50.5439 37.2662C50.7496 37.1185 50.9236 36.9379 51.066 36.7243C51.211 36.5081 51.3125 36.2603 51.3705 35.9808H52.3514C52.2775 36.3948 52.1431 36.7652 51.9479 37.0921C51.7528 37.4191 51.5103 37.6972 51.2202 37.9266C50.9302 38.1534 50.6046 38.3261 50.2434 38.4447C49.8848 38.5634 49.5012 38.6227 49.0925 38.6227C48.4017 38.6227 47.7873 38.454 47.2495 38.1165C46.7116 37.779 46.2884 37.2991 45.9799 36.6769C45.6715 36.0546 45.5172 35.3164 45.5172 34.4621C45.5172 33.6078 45.6715 32.8696 45.9799 32.2473C46.2884 31.6251 46.7116 31.1452 47.2495 30.8077C47.7873 30.4703 48.4017 30.3015 49.0925 30.3015C49.5012 30.3015 49.8848 30.3608 50.2434 30.4795C50.6046 30.5981 50.9302 30.7721 51.2202 31.0015C51.5103 31.2283 51.7528 31.5051 51.9479 31.8321C52.1431 32.1564 52.2775 32.5268 52.3514 32.9434ZM54.7431 30.4122V38.512H53.8097V30.4122H54.7431ZM60.281 36.0283V32.4372H61.2144V38.512H60.281V37.4837H60.2177C60.0753 37.7922 59.8539 38.0545 59.5533 38.2707C59.2527 38.4843 58.873 38.5911 58.4143 38.5911C58.0346 38.5911 57.6971 38.508 57.4018 38.3419C57.1065 38.1732 56.8745 37.92 56.7057 37.5826C56.537 37.2424 56.4526 36.814 56.4526 36.2972V32.4372H57.386V36.2339C57.386 36.6769 57.5099 37.0302 57.7578 37.2938C58.0082 37.5575 58.3273 37.6893 58.7148 37.6893C58.9469 37.6893 59.1829 37.63 59.4228 37.5114C59.6654 37.3927 59.8684 37.2108 60.0318 36.9656C60.198 36.7204 60.281 36.4079 60.281 36.0283ZM63.0505 38.512V30.4122H63.9838V33.4022H64.0629C64.1315 33.2967 64.2264 33.1622 64.3477 32.9988C64.4716 32.8327 64.6482 32.685 64.8776 32.5558C65.1097 32.424 65.4234 32.3581 65.8189 32.3581C66.3304 32.3581 66.7813 32.486 67.1715 32.7417C67.5617 32.9975 67.8663 33.36 68.0851 33.8293C68.3039 34.2986 68.4134 34.8523 68.4134 35.4904C68.4134 36.1337 68.3039 36.6914 68.0851 37.1633C67.8663 37.6326 67.563 37.9965 67.1755 38.2549C66.7879 38.5106 66.341 38.6385 65.8347 38.6385C65.4445 38.6385 65.1321 38.5739 64.8974 38.4447C64.6628 38.3129 64.4821 38.1639 64.3556 37.9978C64.229 37.8291 64.1315 37.6893 64.0629 37.5786H63.9522V38.512H63.0505ZM63.968 35.4746C63.968 35.9333 64.0352 36.3381 64.1697 36.6887C64.3042 37.0368 64.5006 37.3097 64.759 37.5074C65.0174 37.7025 65.3338 37.8001 65.7082 37.8001C66.0984 37.8001 66.424 37.6972 66.685 37.4916C66.9487 37.2833 67.1465 37.0038 67.2783 36.6531C67.4128 36.2998 67.48 35.907 67.48 35.4746C67.48 35.0474 67.4141 34.6625 67.2822 34.3197C67.153 33.9743 66.9566 33.7014 66.693 33.5011C66.4319 33.298 66.1037 33.1965 65.7082 33.1965C65.3285 33.1965 65.0095 33.2928 64.7511 33.4852C64.4927 33.6751 64.2976 33.9414 64.1657 34.2841C64.0339 34.6243 63.968 35.0211 63.968 35.4746ZM74.1441 33.7977L73.3056 34.035C73.2529 33.8952 73.1751 33.7594 73.0723 33.6276C72.9721 33.4931 72.835 33.3824 72.661 33.2954C72.4869 33.2084 72.2641 33.1649 71.9926 33.1649C71.6208 33.1649 71.311 33.2506 71.0632 33.422C70.818 33.5907 70.6954 33.8056 70.6954 34.0666C70.6954 34.2986 70.7797 34.4819 70.9485 34.6163C71.1172 34.7508 71.3809 34.8629 71.7395 34.9525L72.6412 35.174C73.1843 35.3058 73.5891 35.5075 73.8553 35.7791C74.1216 36.048 74.2548 36.3948 74.2548 36.8192C74.2548 37.1673 74.1546 37.4784 73.9542 37.7526C73.7565 38.0268 73.4796 38.243 73.1237 38.4012C72.7677 38.5594 72.3538 38.6385 71.8818 38.6385C71.2622 38.6385 70.7494 38.5041 70.3434 38.2351C69.9373 37.9662 69.6803 37.5733 69.5721 37.0565L70.4581 36.8351C70.5424 37.162 70.7019 37.4072 70.9366 37.5707C71.1739 37.7342 71.4837 37.8159 71.866 37.8159C72.3011 37.8159 72.6465 37.7236 72.9022 37.539C73.1606 37.3518 73.2898 37.1277 73.2898 36.8667C73.2898 36.6558 73.216 36.4791 73.0683 36.3367C72.9207 36.1917 72.6939 36.0836 72.3881 36.0124L71.3756 35.7751C70.8193 35.6433 70.4106 35.439 70.1496 35.1621C69.8912 34.8826 69.762 34.5333 69.762 34.1141C69.762 33.7713 69.8582 33.4681 70.0507 33.2044C70.2458 32.9408 70.5108 32.7338 70.8456 32.5835C71.1831 32.4332 71.5654 32.3581 71.9926 32.3581C72.5937 32.3581 73.0657 32.4899 73.4084 32.7536C73.7538 33.0172 73.999 33.3653 74.1441 33.7977Z" fill="#717171"/>
</g>
<defs>
<clipPath id="clip0_211_2337">
<rect width="132.949" height="43" fill="white" transform="translate(44.8528 0.511963)"/>
</clipPath>
</defs>
</svg>
