<svg width="179" height="44" viewBox="0 0 179 44" fill="none" xmlns="http://www.w3.org/2000/svg">
<path d="M28.7673 34.3839V31.5997C28.7673 30.1228 28.1806 28.7064 27.1363 27.6621C26.092 26.6178 24.6756 26.0311 23.1988 26.0311H21.8066C21.4374 26.0311 21.0833 25.8844 20.8222 25.6234C20.5612 25.3623 20.4145 25.0082 20.4145 24.639V17.6783C20.4145 16.9398 20.1211 16.2316 19.599 15.7095C19.0768 15.1873 18.3687 14.894 17.6302 14.894C16.8918 14.894 16.1836 15.1873 15.6614 15.7095C15.1393 16.2316 14.8459 16.9398 14.8459 17.6783V30.2075L11.5048 25.7527C11.2455 25.4069 10.9092 25.1262 10.5225 24.9329C10.1359 24.7396 9.70963 24.639 9.27738 24.639H8.67319C7.46899 24.639 6.4931 25.6149 6.4931 26.8191C6.4931 27.2144 6.6003 27.6028 6.80355 27.9411L10.6695 34.3839M17.6302 10.7176V9.32544V10.7176ZM25.983 19.0704H27.3752H25.983ZM7.88524 19.0704H9.27738H7.88524ZM11.147 12.5872L10.1628 11.603L11.147 12.5872ZM24.1134 12.5872L25.0976 11.603L24.1134 12.5872Z" fill="#4CAF4F"/>
<path d="M28.7673 34.3839V31.5997C28.7673 30.1228 28.1806 28.7064 27.1363 27.6621C26.092 26.6178 24.6756 26.0311 23.1988 26.0311H21.8066C21.4374 26.0311 21.0833 25.8844 20.8222 25.6234C20.5612 25.3623 20.4145 25.0082 20.4145 24.639V17.6783C20.4145 16.9398 20.1211 16.2316 19.599 15.7095C19.0768 15.1873 18.3687 14.894 17.6302 14.894V14.894C16.8918 14.894 16.1836 15.1873 15.6614 15.7095C15.1393 16.2316 14.8459 16.9398 14.8459 17.6783V30.2075L11.5048 25.7527C11.2455 25.4069 10.9092 25.1262 10.5225 24.9329C10.1359 24.7396 9.70963 24.639 9.27738 24.639H8.67319C7.46899 24.639 6.4931 25.6149 6.4931 26.8191C6.4931 27.2144 6.6003 27.6028 6.80355 27.9411L10.6695 34.3839M17.6302 10.7176V9.32544M25.983 19.0704H27.3752M7.88524 19.0704H9.27738M11.147 12.5872L10.1628 11.603M24.1134 12.5872L25.0976 11.603" stroke="#4CAF4F" stroke-width="1.39214" stroke-linecap="round" stroke-linejoin="round"/>
<g clip-path="url(#clip0_211_2347)">
<path d="M51.9097 20.5485C50.8438 20.5485 49.8956 20.3755 49.0651 20.0294C48.2392 19.6788 47.5909 19.2012 47.1203 18.5968C46.6496 17.9923 46.4143 17.3071 46.4143 16.5412C46.4143 15.9506 46.5481 15.4084 46.8157 14.9147C47.088 14.4164 47.4571 14.0034 47.9231 13.6758C48.3891 13.3436 48.9105 13.1314 49.4873 13.0391V12.9422C48.7306 12.7899 48.1169 12.4231 47.6463 11.8417C47.1756 11.2557 46.9403 10.5752 46.9403 9.79999C46.9403 9.06635 47.1549 8.41345 47.584 7.84131C48.0131 7.26454 48.6014 6.81236 49.3489 6.48476C50.101 6.15255 50.9546 5.98644 51.9097 5.98644C52.8648 5.98644 53.7161 6.15255 54.4636 6.48476C55.2157 6.81698 55.8063 7.27146 56.2354 7.84823C56.6645 8.42038 56.8814 9.07096 56.886 9.79999C56.8814 10.5798 56.6414 11.2604 56.1662 11.8417C55.6909 12.4231 55.0819 12.7899 54.339 12.9422V13.0391C54.9065 13.1314 55.421 13.3436 55.8824 13.6758C56.3484 14.0034 56.7176 14.4164 56.9898 14.9147C57.2667 15.4084 57.4074 15.9506 57.412 16.5412C57.4074 17.3071 57.1698 17.9923 56.6991 18.5968C56.2285 19.2012 55.5779 19.6788 54.7474 20.0294C53.9214 20.3755 52.9755 20.5485 51.9097 20.5485ZM51.9097 18.3476C52.3849 18.3476 52.8002 18.2622 53.1555 18.0915C53.5108 17.9162 53.7876 17.6763 53.986 17.3717C54.1891 17.0626 54.2906 16.7073 54.2906 16.3059C54.2906 15.8952 54.1867 15.533 53.9791 15.2192C53.7715 14.9009 53.49 14.6517 53.1347 14.4718C52.7794 14.2872 52.3711 14.1949 51.9097 14.1949C51.4529 14.1949 51.0445 14.2872 50.6846 14.4718C50.3247 14.6517 50.041 14.9009 49.8333 15.2192C49.6303 15.533 49.5288 15.8952 49.5288 16.3059C49.5288 16.7073 49.628 17.0626 49.8264 17.3717C50.0248 17.6763 50.304 17.9162 50.6639 18.0915C51.0238 18.2622 51.439 18.3476 51.9097 18.3476ZM51.9097 12.0148C52.3065 12.0148 52.6595 11.934 52.9686 11.7725C53.2778 11.611 53.52 11.3872 53.6953 11.1012C53.8707 10.8151 53.9583 10.4852 53.9583 10.1114C53.9583 9.74231 53.8707 9.41933 53.6953 9.14248C53.52 8.86102 53.2801 8.64185 52.9755 8.48497C52.671 8.32348 52.3157 8.24273 51.9097 8.24273C51.5083 8.24273 51.153 8.32348 50.8438 8.48497C50.5347 8.64185 50.2924 8.86102 50.1171 9.14248C49.9464 9.41933 49.861 9.74231 49.861 10.1114C49.861 10.4852 49.9487 10.8151 50.124 11.1012C50.2994 11.3872 50.5416 11.611 50.8508 11.7725C51.1599 11.934 51.5129 12.0148 51.9097 12.0148ZM59.5074 20.3547V18.1953L64.5529 13.5236C64.982 13.1083 65.3419 12.7346 65.6326 12.4023C65.9279 12.0701 66.1517 11.7448 66.3039 11.4265C66.4562 11.1035 66.5323 10.7551 66.5323 10.3814C66.5323 9.9661 66.4377 9.6085 66.2486 9.30859C66.0594 9.00406 65.801 8.77105 65.4734 8.60955C65.1458 8.44345 64.7744 8.36039 64.3591 8.36039C63.9254 8.36039 63.547 8.44806 63.224 8.6234C62.901 8.79873 62.6519 9.0502 62.4765 9.3778C62.3012 9.7054 62.2135 10.0953 62.2135 10.5475H59.369C59.369 9.62004 59.5789 8.81488 59.9988 8.13199C60.4187 7.44911 61.007 6.92079 61.7637 6.54705C62.5204 6.17331 63.3924 5.98644 64.3799 5.98644C65.395 5.98644 66.2786 6.16639 67.0307 6.52629C67.7874 6.88157 68.3757 7.37528 68.7956 8.00741C69.2154 8.63954 69.4254 9.36396 69.4254 10.1807C69.4254 10.7159 69.3193 11.2442 69.107 11.7656C68.8994 12.287 68.5279 12.8661 67.9927 13.5028C67.4575 14.1349 66.7031 14.894 65.7295 15.7799L63.6601 17.8078V17.9047H69.6122V20.3547H59.5074ZM77.0715 20.5485C76.0057 20.5485 75.0575 20.3755 74.2269 20.0294C73.401 19.6788 72.7527 19.2012 72.2821 18.5968C71.8114 17.9923 71.5761 17.3071 71.5761 16.5412C71.5761 15.9506 71.7099 15.4084 71.9775 14.9147C72.2498 14.4164 72.6189 14.0034 73.0849 13.6758C73.551 13.3436 74.0723 13.1314 74.6491 13.0391V12.9422C73.8924 12.7899 73.2787 12.4231 72.8081 11.8417C72.3374 11.2557 72.1021 10.5752 72.1021 9.79999C72.1021 9.06635 72.3167 8.41345 72.7458 7.84131C73.1749 7.26454 73.7632 6.81236 74.5107 6.48476C75.2628 6.15255 76.1164 5.98644 77.0715 5.98644C78.0266 5.98644 78.8779 6.15255 79.6254 6.48476C80.3775 6.81698 80.9681 7.27146 81.3972 7.84823C81.8263 8.42038 82.0432 9.07096 82.0478 9.79999C82.0432 10.5798 81.8033 11.2604 81.328 11.8417C80.8528 12.4231 80.2437 12.7899 79.5008 12.9422V13.0391C80.0684 13.1314 80.5828 13.3436 81.0442 13.6758C81.5103 14.0034 81.8794 14.4164 82.1516 14.9147C82.4285 15.4084 82.5692 15.9506 82.5738 16.5412C82.5692 17.3071 82.3316 17.9923 81.8609 18.5968C81.3903 19.2012 80.7397 19.6788 79.9092 20.0294C79.0833 20.3755 78.1374 20.5485 77.0715 20.5485ZM77.0715 18.3476C77.5468 18.3476 77.962 18.2622 78.3173 18.0915C78.6726 17.9162 78.9494 17.6763 79.1479 17.3717C79.3509 17.0626 79.4524 16.7073 79.4524 16.3059C79.4524 15.8952 79.3486 15.533 79.1409 15.2192C78.9333 14.9009 78.6518 14.6517 78.2966 14.4718C77.9413 14.2872 77.5329 14.1949 77.0715 14.1949C76.6147 14.1949 76.2064 14.2872 75.8465 14.4718C75.4866 14.6517 75.2028 14.9009 74.9952 15.2192C74.7921 15.533 74.6906 15.8952 74.6906 16.3059C74.6906 16.7073 74.7898 17.0626 74.9882 17.3717C75.1867 17.6763 75.4658 17.9162 75.8257 18.0915C76.1856 18.2622 76.6009 18.3476 77.0715 18.3476ZM77.0715 12.0148C77.4683 12.0148 77.8213 11.934 78.1304 11.7725C78.4396 11.611 78.6818 11.3872 78.8572 11.1012C79.0325 10.8151 79.1202 10.4852 79.1202 10.1114C79.1202 9.74231 79.0325 9.41933 78.8572 9.14248C78.6818 8.86102 78.4419 8.64185 78.1374 8.48497C77.8328 8.32348 77.4776 8.24273 77.0715 8.24273C76.6701 8.24273 76.3148 8.32348 76.0057 8.48497C75.6965 8.64185 75.4543 8.86102 75.2789 9.14248C75.1082 9.41933 75.0229 9.74231 75.0229 10.1114C75.0229 10.4852 75.1105 10.8151 75.2859 11.1012C75.4612 11.3872 75.7034 11.611 76.0126 11.7725C76.3217 11.934 76.6747 12.0148 77.0715 12.0148ZM87.5017 18.4168L87.4255 19.1781C87.3656 19.7872 87.2502 20.394 87.0795 20.9984C86.9134 21.6075 86.738 22.1588 86.5535 22.6526C86.3735 23.1463 86.2282 23.5338 86.1174 23.8153H84.2072C84.2764 23.5431 84.371 23.1624 84.491 22.6733C84.6109 22.1888 84.724 21.6444 84.8301 21.0399C84.9362 20.4355 85.0031 19.8195 85.0308 19.192L85.0654 18.4168H87.5017ZM94.8865 20.5485C93.8207 20.5485 92.8725 20.3755 92.0419 20.0294C91.216 19.6788 90.5677 19.2012 90.0971 18.5968C89.6265 17.9923 89.3912 17.3071 89.3912 16.5412C89.3912 15.9506 89.525 15.4084 89.7926 14.9147C90.0648 14.4164 90.4339 14.0034 90.9 13.6758C91.366 13.3436 91.8874 13.1314 92.4641 13.0391V12.9422C91.7074 12.7899 91.0938 12.4231 90.6231 11.8417C90.1525 11.2557 89.9172 10.5752 89.9172 9.79999C89.9172 9.06635 90.1317 8.41345 90.5608 7.84131C90.9899 7.26454 91.5782 6.81236 92.3257 6.48476C93.0778 6.15255 93.9314 5.98644 94.8865 5.98644C95.8417 5.98644 96.693 6.15255 97.4404 6.48476C98.1925 6.81698 98.7831 7.27146 99.2123 7.84823C99.6414 8.42038 99.8582 9.07096 99.8628 9.79999C99.8582 10.5798 99.6183 11.2604 99.143 11.8417C98.6678 12.4231 98.0587 12.7899 97.3159 12.9422V13.0391C97.8834 13.1314 98.3979 13.3436 98.8593 13.6758C99.3253 14.0034 99.6944 14.4164 99.9667 14.9147C100.244 15.4084 100.384 15.9506 100.389 16.5412C100.384 17.3071 100.147 17.9923 99.676 18.5968C99.2053 19.2012 98.5547 19.6788 97.7242 20.0294C96.8983 20.3755 95.9524 20.5485 94.8865 20.5485ZM94.8865 18.3476C95.3618 18.3476 95.7771 18.2622 96.1323 18.0915C96.4876 17.9162 96.7645 17.6763 96.9629 17.3717C97.1659 17.0626 97.2674 16.7073 97.2674 16.3059C97.2674 15.8952 97.1636 15.533 96.956 15.2192C96.7483 14.9009 96.4669 14.6517 96.1116 14.4718C95.7563 14.2872 95.3479 14.1949 94.8865 14.1949C94.4297 14.1949 94.0214 14.2872 93.6615 14.4718C93.3016 14.6517 93.0178 14.9009 92.8102 15.2192C92.6072 15.533 92.5057 15.8952 92.5057 16.3059C92.5057 16.7073 92.6049 17.0626 92.8033 17.3717C93.0017 17.6763 93.2808 17.9162 93.6407 18.0915C94.0006 18.2622 94.4159 18.3476 94.8865 18.3476ZM94.8865 12.0148C95.2834 12.0148 95.6363 11.934 95.9455 11.7725C96.2546 11.611 96.4969 11.3872 96.6722 11.1012C96.8475 10.8151 96.9352 10.4852 96.9352 10.1114C96.9352 9.74231 96.8475 9.41933 96.6722 9.14248C96.4969 8.86102 96.2569 8.64185 95.9524 8.48497C95.6479 8.32348 95.2926 8.24273 94.8865 8.24273C94.4851 8.24273 94.1298 8.32348 93.8207 8.48497C93.5115 8.64185 93.2693 8.86102 93.094 9.14248C92.9232 9.41933 92.8379 9.74231 92.8379 10.1114C92.8379 10.4852 92.9255 10.8151 93.1009 11.1012C93.2762 11.3872 93.5185 11.611 93.8276 11.7725C94.1367 11.934 94.4897 12.0148 94.8865 12.0148ZM107.924 20.5485C107.195 20.5439 106.492 20.4216 105.813 20.1817C105.14 19.9418 104.535 19.5519 104 19.012C103.465 18.4722 103.04 17.757 102.726 16.8665C102.417 15.976 102.263 14.8824 102.263 13.5859C102.267 12.3954 102.403 11.3319 102.671 10.3952C102.943 9.45393 103.331 8.65569 103.834 8.00049C104.341 7.34529 104.948 6.84697 105.654 6.50552C106.36 6.15947 107.151 5.98644 108.028 5.98644C108.974 5.98644 109.809 6.171 110.534 6.54013C111.258 6.90464 111.839 7.40066 112.278 8.02818C112.721 8.65569 112.988 9.35934 113.08 10.1391H110.125C110.01 9.64542 109.768 9.25783 109.398 8.97637C109.029 8.69491 108.573 8.55418 108.028 8.55418C107.105 8.55418 106.404 8.95561 105.924 9.75846C105.449 10.5613 105.207 11.6525 105.197 13.0322H105.294C105.506 12.6123 105.793 12.2547 106.152 11.9594C106.517 11.6595 106.93 11.4311 107.391 11.2742C107.857 11.1127 108.349 11.032 108.866 11.032C109.705 11.032 110.453 11.2304 111.108 11.6272C111.763 12.0194 112.28 12.5592 112.658 13.2467C113.037 13.9342 113.226 14.7209 113.226 15.6068C113.226 16.5666 113.002 17.4202 112.554 18.1677C112.112 18.9151 111.491 19.5011 110.693 19.9256C109.899 20.3455 108.976 20.5531 107.924 20.5485ZM107.91 18.1953C108.372 18.1953 108.785 18.0846 109.149 17.8631C109.514 17.6416 109.8 17.3417 110.008 16.9634C110.215 16.585 110.319 16.1605 110.319 15.6899C110.319 15.2192 110.215 14.7971 110.008 14.4233C109.804 14.0496 109.523 13.752 109.163 13.5305C108.803 13.309 108.393 13.1983 107.931 13.1983C107.585 13.1983 107.264 13.2629 106.969 13.3921C106.678 13.5213 106.422 13.7012 106.201 13.9319C105.984 14.1626 105.813 14.4302 105.689 14.7348C105.564 15.0347 105.502 15.3554 105.502 15.6968C105.502 16.1536 105.606 16.5712 105.813 16.9495C106.026 17.3279 106.312 17.6301 106.672 17.8562C107.036 18.0823 107.449 18.1953 107.91 18.1953ZM115.911 20.3547L121.787 8.72721V8.63032H114.942V6.18023H124.888V8.66492L119.005 20.3547H115.911Z" fill="#4D4D4D"/>
<path d="M46.4538 38.3547V30.255H51.3422V31.1251H47.4347V33.8619H51.089V34.732H47.4347V37.4846H51.4054V38.3547H46.4538ZM57.9509 32.2799L55.7045 38.3547H54.7553L52.5089 32.2799H53.5213L55.1982 37.1208H55.2615L56.9384 32.2799H57.9509ZM61.5123 38.4813C60.927 38.4813 60.422 38.3521 59.9975 38.0937C59.5757 37.8327 59.2501 37.4688 59.0207 37.0021C58.7939 36.5328 58.6805 35.987 58.6805 35.3648C58.6805 34.7426 58.7939 34.1941 59.0207 33.7195C59.2501 33.2423 59.5691 32.8706 59.9778 32.6043C60.3891 32.3353 60.8689 32.2008 61.4174 32.2008C61.7338 32.2008 62.0462 32.2536 62.3547 32.359C62.6632 32.4645 62.944 32.6359 63.1971 32.8732C63.4502 33.1078 63.6519 33.419 63.8022 33.8066C63.9525 34.1941 64.0276 34.6714 64.0276 35.2382V35.6337H59.345V34.8269H63.0784C63.0784 34.4842 63.0099 34.1783 62.8728 33.9094C62.7383 33.6404 62.5458 33.4282 62.2954 33.2726C62.0475 33.1171 61.7549 33.0393 61.4174 33.0393C61.0456 33.0393 60.7239 33.1316 60.4524 33.3161C60.1834 33.4981 59.9764 33.7354 59.8314 34.028C59.6864 34.3207 59.6139 34.6345 59.6139 34.9693V35.5072C59.6139 35.966 59.693 36.3549 59.8512 36.6739C60.012 36.9903 60.2348 37.2315 60.5196 37.3976C60.8043 37.5611 61.1352 37.6428 61.5123 37.6428C61.7575 37.6428 61.979 37.6086 62.1767 37.54C62.3771 37.4688 62.5498 37.3634 62.6948 37.2236C62.8398 37.0812 62.9519 36.9046 63.031 36.6937L63.9327 36.9468C63.8378 37.2526 63.6783 37.5216 63.4542 37.7536C63.23 37.983 62.9532 38.1623 62.6236 38.2915C62.294 38.418 61.9236 38.4813 61.5123 38.4813ZM66.3808 34.7004V38.3547H65.4474V32.2799H66.3492V33.2291H66.4283C66.5707 32.9206 66.7869 32.6728 67.0769 32.4856C67.3669 32.2958 67.7413 32.2008 68.2001 32.2008C68.6114 32.2008 68.9713 32.2852 69.2798 32.454C69.5883 32.6201 69.8282 32.8732 69.9996 33.2133C70.171 33.5508 70.2567 33.9779 70.2567 34.4947V38.3547H69.3233V34.558C69.3233 34.0808 69.1994 33.709 68.9515 33.4427C68.7037 33.1738 68.3636 33.0393 67.9312 33.0393C67.6332 33.0393 67.3669 33.1039 67.1323 33.2331C66.9002 33.3623 66.717 33.5508 66.5825 33.7986C66.448 34.0465 66.3808 34.3471 66.3808 34.7004ZM74.6041 32.2799V33.0709H71.456V32.2799H74.6041ZM72.3735 30.8245H73.3069V36.6146C73.3069 36.8782 73.3451 37.076 73.4216 37.2078C73.5007 37.337 73.6009 37.424 73.7222 37.4688C73.8461 37.511 73.9766 37.5321 74.1137 37.5321C74.2165 37.5321 74.3009 37.5268 74.3668 37.5163C74.4327 37.5031 74.4855 37.4926 74.525 37.4846L74.7149 38.3231C74.6516 38.3468 74.5633 38.3706 74.4499 38.3943C74.3365 38.4207 74.1928 38.4338 74.0188 38.4338C73.7551 38.4338 73.4967 38.3771 73.2436 38.2638C72.9931 38.1504 72.7849 37.9777 72.6187 37.7457C72.4553 37.5137 72.3735 37.221 72.3735 36.8677V30.8245ZM79.267 38.3547V30.255H82.0987C82.663 30.255 83.1283 30.3526 83.4948 30.5477C83.8613 30.7402 84.1342 30.9999 84.3135 31.3268C84.4928 31.6511 84.5824 32.011 84.5824 32.4065C84.5824 32.7545 84.5205 33.0419 84.3966 33.2687C84.2753 33.4954 84.1144 33.6747 83.9141 33.8066C83.7163 33.9384 83.5014 34.0359 83.2694 34.0992V34.1783C83.5172 34.1941 83.7664 34.2811 84.0169 34.4393C84.2674 34.5975 84.477 34.8243 84.6457 35.1196C84.8145 35.4149 84.8988 35.7761 84.8988 36.2032C84.8988 36.6093 84.8065 36.9745 84.622 37.2988C84.4374 37.6231 84.1461 37.8801 83.7479 38.07C83.3498 38.2598 82.8317 38.3547 82.1937 38.3547H79.267ZM80.2478 37.4846H82.1937C82.8344 37.4846 83.2892 37.3607 83.5581 37.1129C83.8297 36.8624 83.9655 36.5592 83.9655 36.2032C83.9655 35.929 83.8956 35.6759 83.7559 35.4439C83.6161 35.2092 83.417 35.022 83.1587 34.8823C82.9003 34.7399 82.5944 34.6687 82.2411 34.6687H80.2478V37.4846ZM80.2478 33.8145H82.0671C82.3624 33.8145 82.6287 33.7565 82.866 33.6404C83.1059 33.5244 83.2958 33.361 83.4355 33.15C83.5779 32.9391 83.6491 32.6913 83.6491 32.4065C83.6491 32.0506 83.5251 31.7487 83.2773 31.5008C83.0295 31.2503 82.6366 31.1251 82.0987 31.1251H80.2478V33.8145ZM88.8518 38.4813C88.3034 38.4813 87.8222 38.3508 87.4082 38.0898C86.9969 37.8287 86.6753 37.4636 86.4432 36.9942C86.2139 36.5249 86.0992 35.9765 86.0992 35.349C86.0992 34.7162 86.2139 34.1638 86.4432 33.6919C86.6753 33.2199 86.9969 32.8534 87.4082 32.5924C87.8222 32.3314 88.3034 32.2008 88.8518 32.2008C89.4002 32.2008 89.8801 32.3314 90.2914 32.5924C90.7053 32.8534 91.027 33.2199 91.2564 33.6919C91.4884 34.1638 91.6044 34.7162 91.6044 35.349C91.6044 35.9765 91.4884 36.5249 91.2564 36.9942C91.027 37.4636 90.7053 37.8287 90.2914 38.0898C89.8801 38.3508 89.4002 38.4813 88.8518 38.4813ZM88.8518 37.6428C89.2684 37.6428 89.6111 37.5361 89.8801 37.3225C90.149 37.1089 90.3481 36.8281 90.4773 36.4801C90.6065 36.1321 90.6711 35.755 90.6711 35.349C90.6711 34.9429 90.6065 34.5646 90.4773 34.2139C90.3481 33.8632 90.149 33.5798 89.8801 33.3636C89.6111 33.1474 89.2684 33.0393 88.8518 33.0393C88.4352 33.0393 88.0924 33.1474 87.8235 33.3636C87.5546 33.5798 87.3555 33.8632 87.2263 34.2139C87.0971 34.5646 87.0325 34.9429 87.0325 35.349C87.0325 35.755 87.0971 36.1321 87.2263 36.4801C87.3555 36.8281 87.5546 37.1089 87.8235 37.3225C88.0924 37.5361 88.4352 37.6428 88.8518 37.6428ZM95.4971 38.4813C94.9487 38.4813 94.4675 38.3508 94.0535 38.0898C93.6422 37.8287 93.3205 37.4636 93.0885 36.9942C92.8591 36.5249 92.7444 35.9765 92.7444 35.349C92.7444 34.7162 92.8591 34.1638 93.0885 33.6919C93.3205 33.2199 93.6422 32.8534 94.0535 32.5924C94.4675 32.3314 94.9487 32.2008 95.4971 32.2008C96.0455 32.2008 96.5254 32.3314 96.9367 32.5924C97.3506 32.8534 97.6723 33.2199 97.9017 33.6919C98.1337 34.1638 98.2497 34.7162 98.2497 35.349C98.2497 35.9765 98.1337 36.5249 97.9017 36.9942C97.6723 37.4636 97.3506 37.8287 96.9367 38.0898C96.5254 38.3508 96.0455 38.4813 95.4971 38.4813ZM95.4971 37.6428C95.9137 37.6428 96.2564 37.5361 96.5254 37.3225C96.7943 37.1089 96.9934 36.8281 97.1226 36.4801C97.2518 36.1321 97.3164 35.755 97.3164 35.349C97.3164 34.9429 97.2518 34.5646 97.1226 34.2139C96.9934 33.8632 96.7943 33.5798 96.5254 33.3636C96.2564 33.1474 95.9137 33.0393 95.4971 33.0393C95.0805 33.0393 94.7377 33.1474 94.4688 33.3636C94.1999 33.5798 94.0008 33.8632 93.8716 34.2139C93.7424 34.5646 93.6778 34.9429 93.6778 35.349C93.6778 35.755 93.7424 36.1321 93.8716 36.4801C94.0008 36.8281 94.1999 37.1089 94.4688 37.3225C94.7377 37.5361 95.0805 37.6428 95.4971 37.6428ZM100.545 36.14L100.529 34.9851H100.719L103.376 32.2799H104.531L101.699 35.1433H101.62L100.545 36.14ZM99.6745 38.3547V30.255H100.608V38.3547H99.6745ZM103.535 38.3547L101.162 35.349L101.826 34.7004L104.721 38.3547H103.535ZM105.732 38.3547V32.2799H106.666V38.3547H105.732ZM106.207 31.2675C106.025 31.2675 105.868 31.2055 105.736 31.0816C105.607 30.9577 105.543 30.8087 105.543 30.6347C105.543 30.4607 105.607 30.3117 105.736 30.1878C105.868 30.0639 106.025 30.0019 106.207 30.0019C106.389 30.0019 106.545 30.0639 106.674 30.1878C106.806 30.3117 106.871 30.4607 106.871 30.6347C106.871 30.8087 106.806 30.9577 106.674 31.0816C106.545 31.2055 106.389 31.2675 106.207 31.2675ZM109.309 34.7004V38.3547H108.375V32.2799H109.277V33.2291H109.356C109.499 32.9206 109.715 32.6728 110.005 32.4856C110.295 32.2958 110.669 32.2008 111.128 32.2008C111.539 32.2008 111.899 32.2852 112.208 32.454C112.516 32.6201 112.756 32.8732 112.927 33.2133C113.099 33.5508 113.185 33.9779 113.185 34.4947V38.3547H112.251V34.558C112.251 34.0808 112.127 33.709 111.879 33.4427C111.632 33.1738 111.291 33.0393 110.859 33.0393C110.561 33.0393 110.295 33.1039 110.06 33.2331C109.828 33.3623 109.645 33.5508 109.51 33.7986C109.376 34.0465 109.309 34.3471 109.309 34.7004ZM117.342 40.7593C116.891 40.7593 116.504 40.7013 116.179 40.5853C115.855 40.4719 115.585 40.3217 115.369 40.1345C115.155 39.9499 114.985 39.7521 114.858 39.5412L115.602 39.0192C115.686 39.1299 115.793 39.2565 115.922 39.3988C116.052 39.5439 116.228 39.6691 116.452 39.7746C116.679 39.8827 116.976 39.9367 117.342 39.9367C117.833 39.9367 118.237 39.8181 118.556 39.5808C118.875 39.3435 119.035 38.9717 119.035 38.4655V37.2315H118.956C118.887 37.3423 118.79 37.4794 118.663 37.6428C118.539 37.8037 118.36 37.9474 118.125 38.0739C117.893 38.1979 117.579 38.2598 117.184 38.2598C116.694 38.2598 116.253 38.1438 115.863 37.9118C115.475 37.6798 115.168 37.3423 114.942 36.8993C114.717 36.4564 114.605 35.9185 114.605 35.2857C114.605 34.6635 114.715 34.1216 114.934 33.6602C115.152 33.1962 115.457 32.8376 115.847 32.5845C116.237 32.3287 116.688 32.2008 117.2 32.2008C117.595 32.2008 117.909 32.2668 118.141 32.3986C118.376 32.5278 118.555 32.6754 118.679 32.8415C118.806 33.005 118.903 33.1395 118.972 33.245H119.067V32.2799H119.968V38.5288C119.968 39.0508 119.85 39.4753 119.612 39.8022C119.378 40.1318 119.061 40.3731 118.663 40.526C118.268 40.6816 117.827 40.7593 117.342 40.7593ZM117.311 37.4214C117.685 37.4214 118.001 37.3357 118.26 37.1643C118.518 36.9929 118.715 36.7464 118.849 36.4247C118.983 36.1031 119.051 35.7181 119.051 35.2699C119.051 34.8322 118.985 34.4459 118.853 34.1111C118.721 33.7762 118.526 33.5139 118.268 33.3241C118.009 33.1342 117.69 33.0393 117.311 33.0393C116.915 33.0393 116.585 33.1395 116.322 33.3399C116.061 33.5403 115.864 33.8092 115.733 34.1467C115.603 34.4842 115.539 34.8586 115.539 35.2699C115.539 35.6917 115.605 36.0648 115.736 36.3891C115.871 36.7108 116.069 36.9639 116.33 37.1485C116.593 37.3304 116.92 37.4214 117.311 37.4214ZM125.98 33.6404L125.141 33.8777C125.089 33.738 125.011 33.6022 124.908 33.4704C124.808 33.3359 124.671 33.2252 124.497 33.1382C124.323 33.0512 124.1 33.0077 123.828 33.0077C123.457 33.0077 123.147 33.0933 122.899 33.2647C122.654 33.4335 122.531 33.6484 122.531 33.9094C122.531 34.1414 122.615 34.3247 122.784 34.4591C122.953 34.5936 123.217 34.7056 123.575 34.7953L124.477 35.0168C125.02 35.1486 125.425 35.3503 125.691 35.6219C125.957 35.8908 126.091 36.2375 126.091 36.662C126.091 37.0101 125.99 37.3212 125.79 37.5954C125.592 37.8696 125.315 38.0858 124.959 38.244C124.603 38.4022 124.19 38.4813 123.718 38.4813C123.098 38.4813 122.585 38.3468 122.179 38.0779C121.773 37.809 121.516 37.4161 121.408 36.8993L122.294 36.6778C122.378 37.0048 122.538 37.25 122.772 37.4135C123.01 37.5769 123.319 37.6587 123.702 37.6587C124.137 37.6587 124.482 37.5664 124.738 37.3818C124.996 37.1946 125.126 36.9705 125.126 36.7095C125.126 36.4986 125.052 36.3219 124.904 36.1795C124.756 36.0345 124.53 35.9264 124.224 35.8552L123.211 35.6179C122.655 35.4861 122.246 35.2817 121.985 35.0049C121.727 34.7254 121.598 34.3761 121.598 33.9568C121.598 33.6141 121.694 33.3109 121.886 33.0472C122.082 32.7835 122.347 32.5766 122.681 32.4263C123.019 32.276 123.401 32.2008 123.828 32.2008C124.429 32.2008 124.901 32.3327 125.244 32.5963C125.59 32.86 125.835 33.208 125.98 33.6404Z" fill="#717171"/>
</g>
<defs>
<clipPath id="clip0_211_2347">
<rect width="132.949" height="43" fill="white" transform="translate(45.473 0.354736)"/>
</clipPath>
</defs>
</svg>
