<svg width="179" height="44" viewBox="0 0 179 44" fill="none" xmlns="http://www.w3.org/2000/svg">
<g clip-path="url(#clip0_211_2331)">
<path d="M33.1456 32.0625L33.1457 32.0626C33.2769 31.9716 33.3888 31.8554 33.4747 31.7208L33.768 31.9081L33.4747 31.7208C33.5607 31.5862 33.619 31.4358 33.6463 31.2784C33.6736 31.1211 33.6694 30.9599 33.6339 30.8042L33.9732 30.7267L33.6339 30.8042C33.5983 30.6485 33.5322 30.5014 33.4393 30.3714L33.4378 30.3693C32.1307 28.5113 30.3498 27.0374 28.2801 26.1009L27.7754 25.8725L28.2002 25.5169C29.46 24.4624 30.3642 23.0453 30.7897 21.4585C31.2153 19.8717 31.1414 18.1923 30.5782 16.6489C30.015 15.1056 28.9898 13.7734 27.6423 12.8336C26.2948 11.8938 24.6904 11.3921 23.0475 11.3969L23.0459 11.3969C22.3148 11.3957 21.5871 11.4966 20.8839 11.6968L20.8777 11.6986L20.8776 11.6985C20.7215 11.7399 20.5751 11.8119 20.447 11.9103C20.3189 12.0088 20.2116 12.1317 20.1315 12.272C20.0514 12.4123 20 12.5672 19.9802 12.7275C19.9605 12.8879 19.9729 13.0506 20.0167 13.2061C20.0604 13.3616 20.1347 13.5069 20.2352 13.6334L19.9625 13.8498L20.2352 13.6334C20.3356 13.76 20.4602 13.8653 20.6017 13.9432L20.4339 14.2481L20.6017 13.9432C20.7433 14.0211 20.8989 14.0701 21.0595 14.0873C21.2202 14.1045 21.3826 14.0896 21.5375 14.0434L21.5415 14.0422L21.5415 14.0423C22.0311 13.9026 22.5379 13.8322 23.0471 13.8331M33.1456 32.0625L23.0465 14.1812M33.1456 32.0625L33.1416 32.0654C32.9384 32.2107 32.6948 32.2884 32.445 32.2877C32.2497 32.2865 32.0575 32.2388 31.8842 32.1487C31.711 32.0585 31.5617 31.9285 31.4487 31.7693M33.1456 32.0625L31.1644 31.9701M23.0471 13.8331L23.0465 14.1812M23.0471 13.8331C23.0469 13.8331 23.0467 13.8331 23.0465 13.8331V14.1812M23.0471 13.8331C24.5238 13.8333 25.9399 14.42 26.984 15.4641C28.0284 16.5084 28.615 17.9248 28.615 19.4017C28.615 20.8786 28.0284 22.295 26.984 23.3393C25.9397 24.3836 24.5234 24.9703 23.0465 24.9703C22.7234 24.9703 22.4136 25.0986 22.1851 25.327C21.9567 25.5555 21.8284 25.8653 21.8284 26.1884C21.8284 26.5114 21.9567 26.8213 22.1851 27.0497C22.4136 27.2782 22.7234 27.4065 23.0465 27.4065H23.0469C24.6943 27.4083 26.3172 27.8055 27.7793 28.5647C29.2412 29.3239 30.4996 30.4229 31.4487 31.7693M23.0465 14.1812C24.4311 14.1812 25.7589 14.7312 26.7379 15.7102C27.717 16.6893 28.267 18.0171 28.267 19.4017C28.267 20.7863 27.717 22.1141 26.7379 23.0932C25.7589 24.0722 24.4311 24.6222 23.0465 24.6222C22.6311 24.6222 22.2328 24.7872 21.939 25.0809C21.6453 25.3746 21.4803 25.773 21.4803 26.1884C21.4803 26.6037 21.6453 27.0021 21.939 27.2958C22.2328 27.5895 22.6311 27.7545 23.0465 27.7545C24.6382 27.7563 26.2063 28.1401 27.6189 28.8736C29.0315 29.6072 30.2474 30.6691 31.1644 31.9701M31.4487 31.7693C31.4485 31.7691 31.4484 31.7689 31.4483 31.7688L31.1644 31.9701M31.4487 31.7693C31.4487 31.7694 31.4488 31.7695 31.4489 31.7696L31.1644 31.9701M17.5628 25.5175L17.14 25.8731L17.6433 26.1009C19.7129 27.0374 21.4939 28.5113 22.801 30.3693L22.806 30.3764L22.8113 30.3832C22.9128 30.5133 22.9869 30.6626 23.0289 30.8222C23.071 30.9818 23.0802 31.1482 23.056 31.3115C23.0318 31.4747 22.9746 31.6313 22.8881 31.7718C22.8015 31.9123 22.6873 32.0337 22.5523 32.1287C22.4174 32.2237 22.2646 32.2903 22.1031 32.3245C21.9417 32.3586 21.775 32.3596 21.6131 32.3274C21.4513 32.2951 21.2977 32.2303 21.1616 32.1369C21.0256 32.0435 20.9099 31.9235 20.8217 31.784L20.8172 31.777L20.8124 31.7701C19.8653 30.4211 18.6072 29.3199 17.1447 28.5598C15.6821 27.7996 14.058 27.4027 12.4097 27.4027C10.7613 27.4027 9.13725 27.7996 7.67468 28.5598C6.21212 29.3199 4.95408 30.4211 4.00692 31.7701L4.00614 31.7712C3.8948 31.9311 3.74634 32.0616 3.5735 32.1516C3.40066 32.2415 3.20858 32.2882 3.01373 32.2877L3.0116 32.2877C2.7617 32.2885 2.51787 32.2108 2.31457 32.0654L2.3129 32.0643C2.04938 31.8782 1.87041 31.5953 1.81522 31.2775C1.76005 30.9598 1.8331 30.6332 2.01835 30.3693C3.32545 28.5113 5.1064 27.0374 7.17602 26.1009L7.67933 25.8731L7.25658 25.5175C6.00015 24.4605 5.09913 23.0427 4.67568 21.4564C4.25222 19.8701 4.32681 18.1919 4.88934 16.6494C5.45187 15.1069 6.47512 13.7746 7.82036 12.8333C9.16561 11.892 10.7678 11.3871 12.4097 11.3871C14.0516 11.3871 15.6537 11.892 16.999 12.8333C18.3442 13.7746 19.3675 15.1069 19.93 16.6494C20.4925 18.1919 20.5671 19.8701 20.1437 21.4564C19.7202 23.0427 18.8192 24.4605 17.5628 25.5175ZM7.77958 16.308C7.1677 17.2237 6.84111 18.3003 6.84111 19.4017C6.84111 20.8786 7.4278 22.295 8.47211 23.3393C9.51641 24.3836 10.9328 24.9703 12.4097 24.9703C13.511 24.9703 14.5876 24.6437 15.5034 24.0318C16.4191 23.4199 17.1329 22.5502 17.5543 21.5327C17.9758 20.5152 18.0861 19.3955 17.8712 18.3153C17.6564 17.2351 17.126 16.2429 16.3472 15.4641C15.5685 14.6854 14.5762 14.155 13.496 13.9401C12.4158 13.7253 11.2962 13.8356 10.2787 14.257C9.26115 14.6785 8.39146 15.3922 7.77958 16.308Z" fill="#4CAF4F" stroke="#4CAF4F" stroke-width="0.696069"/>
</g>
<g clip-path="url(#clip1_211_2331)">
<path d="M46.6219 20.512V18.3526L51.6674 13.6808C52.0966 13.2655 52.4565 12.8918 52.7471 12.5596C53.0424 12.2274 53.2662 11.9021 53.4185 11.5837C53.5708 11.2607 53.6469 10.9123 53.6469 10.5386C53.6469 10.1233 53.5523 9.76573 53.3631 9.46582C53.174 9.16128 52.9156 8.92827 52.588 8.76678C52.2604 8.60067 51.8889 8.51762 51.4737 8.51762C51.0399 8.51762 50.6616 8.60529 50.3386 8.78062C50.0156 8.95596 49.7664 9.20743 49.5911 9.53503C49.4158 9.86263 49.3281 10.2525 49.3281 10.7047H46.4835C46.4835 9.77727 46.6935 8.97211 47.1133 8.28922C47.5332 7.60633 48.1215 7.07802 48.8782 6.70428C49.6349 6.33054 50.507 6.14367 51.4944 6.14367C52.5095 6.14367 53.3931 6.32362 54.1452 6.68351C54.9019 7.0388 55.4902 7.53251 55.9101 8.16464C56.33 8.79677 56.5399 9.52118 56.5399 10.3379C56.5399 10.8731 56.4338 11.4014 56.2216 11.9228C56.0139 12.4442 55.6425 13.0233 55.1073 13.66C54.572 14.2922 53.8176 15.0512 52.844 15.9371L50.7746 17.965V18.0619H56.7268V20.512H46.6219ZM62.1305 18.574L62.0544 19.3354C61.9944 19.9444 61.879 20.5512 61.7083 21.1556C61.5422 21.7647 61.3669 22.3161 61.1823 22.8098C61.0023 23.3035 60.857 23.6911 60.7463 23.9725H58.836C58.9052 23.7003 58.9998 23.3196 59.1198 22.8305C59.2398 22.3461 59.3528 21.8016 59.4589 21.1972C59.5651 20.5927 59.632 19.9767 59.6596 19.3492L59.6942 18.574H62.1305ZM64.7986 20.512V18.3526L69.8441 13.6808C70.2732 13.2655 70.6331 12.8918 70.9238 12.5596C71.2191 12.2274 71.4429 11.9021 71.5952 11.5837C71.7474 11.2607 71.8236 10.9123 71.8236 10.5386C71.8236 10.1233 71.729 9.76573 71.5398 9.46582C71.3506 9.16128 71.0922 8.92827 70.7646 8.76678C70.437 8.60067 70.0656 8.51762 69.6503 8.51762C69.2166 8.51762 68.8382 8.60529 68.5152 8.78062C68.1923 8.95596 67.9431 9.20743 67.7678 9.53503C67.5924 9.86263 67.5048 10.2525 67.5048 10.7047H64.6602C64.6602 9.77727 64.8701 8.97211 65.29 8.28922C65.7099 7.60633 66.2982 7.07802 67.0549 6.70428C67.8116 6.33054 68.6837 6.14367 69.6711 6.14367C70.6862 6.14367 71.5698 6.32362 72.3219 6.68351C73.0786 7.0388 73.6669 7.53251 74.0868 8.16464C74.5067 8.79677 74.7166 9.52118 74.7166 10.3379C74.7166 10.8731 74.6105 11.4014 74.3982 11.9228C74.1906 12.4442 73.8192 13.0233 73.2839 13.66C72.7487 14.2922 71.9943 15.0512 71.0207 15.9371L68.9513 17.965V18.0619H74.9035V20.512H64.7986ZM76.5559 18.0204V15.6602L82.4735 6.33746H84.5083V9.60424H83.304L79.5735 15.508V15.6187H87.9827V18.0204H76.5559ZM83.3594 20.512V17.3006L83.4147 16.2555V6.33746H86.2247V20.512H83.3594ZM95.1565 20.7058C94.1783 20.7058 93.3062 20.5258 92.5403 20.1659C91.7789 19.806 91.1745 19.31 90.7269 18.6779C90.2794 18.0457 90.0464 17.3213 90.0279 16.5046H92.9348C92.9671 17.0537 93.1978 17.499 93.6269 17.8404C94.056 18.1818 94.5659 18.3526 95.1565 18.3526C95.6271 18.3526 96.0424 18.2487 96.4023 18.0411C96.7668 17.8289 97.0505 17.5359 97.2536 17.1621C97.4612 16.7838 97.565 16.35 97.565 15.861C97.565 15.3626 97.4589 14.9243 97.2466 14.5459C97.039 14.1676 96.7506 13.8723 96.3815 13.66C96.0124 13.4478 95.5902 13.3393 95.1149 13.3347C94.6997 13.3347 94.2959 13.4201 93.9037 13.5908C93.5162 13.7615 93.2139 13.9946 92.9971 14.2899L90.3324 13.8123L91.0038 6.33746H99.669V8.78754H93.4746L93.1078 12.3381H93.1909C93.44 11.9874 93.8161 11.6967 94.319 11.466C94.8219 11.2353 95.3849 11.12 96.0078 11.12C96.8614 11.12 97.6227 11.3207 98.2917 11.7221C98.9608 12.1235 99.4891 12.6749 99.8767 13.3763C100.264 14.073 100.456 14.8758 100.451 15.7848C100.456 16.7399 100.234 17.5889 99.7867 18.3318C99.3438 19.0701 98.7232 19.6514 97.9249 20.0759C97.1313 20.4958 96.2085 20.7058 95.1565 20.7058ZM105.317 18.574L105.241 19.3354C105.181 19.9444 105.065 20.5512 104.895 21.1556C104.728 21.7647 104.553 22.3161 104.369 22.8098C104.189 23.3035 104.043 23.6911 103.932 23.9725H102.022C102.091 23.7003 102.186 23.3196 102.306 22.8305C102.426 22.3461 102.539 21.8016 102.645 21.1972C102.751 20.5927 102.818 19.9767 102.846 19.3492L102.88 18.574H105.317ZM112.767 20.7058C111.734 20.7058 110.813 20.5281 110.006 20.1728C109.203 19.8129 108.568 19.3192 108.102 18.6917C107.641 18.0596 107.403 17.3305 107.39 16.5046H110.407C110.426 16.8507 110.539 17.1552 110.746 17.4182C110.959 17.6766 111.24 17.8773 111.591 18.0204C111.941 18.1634 112.336 18.2349 112.774 18.2349C113.231 18.2349 113.635 18.1542 113.985 17.9927C114.336 17.8312 114.611 17.6074 114.809 17.3213C115.007 17.0352 115.107 16.7053 115.107 16.3316C115.107 15.9532 115.001 15.6187 114.788 15.328C114.581 15.0327 114.281 14.802 113.889 14.6359C113.501 14.4698 113.04 14.3867 112.504 14.3867H111.182V12.1858H112.504C112.956 12.1858 113.356 12.1074 113.702 11.9505C114.052 11.7936 114.325 11.5768 114.518 11.2999C114.712 11.0185 114.809 10.6909 114.809 10.3171C114.809 9.96183 114.724 9.65038 114.553 9.38276C114.387 9.11053 114.152 8.89828 113.847 8.74602C113.547 8.59375 113.196 8.51762 112.795 8.51762C112.389 8.51762 112.018 8.59144 111.681 8.73909C111.344 8.88213 111.074 9.08746 110.871 9.35508C110.668 9.62269 110.559 9.93645 110.546 10.2964H107.673C107.687 9.47966 107.92 8.75986 108.372 8.13696C108.825 7.51405 109.434 7.02726 110.2 6.67659C110.97 6.32131 111.84 6.14367 112.809 6.14367C113.787 6.14367 114.643 6.32131 115.377 6.67659C116.11 7.03188 116.68 7.51174 117.086 8.11619C117.497 8.71602 117.7 9.38968 117.695 10.1372C117.7 10.9308 117.453 11.5929 116.955 12.1235C116.461 12.6542 115.817 12.991 115.024 13.134V13.2448C116.066 13.3786 116.86 13.7408 117.404 14.3314C117.954 14.9174 118.226 15.651 118.221 16.5323C118.226 17.3398 117.993 18.0573 117.522 18.6848C117.056 19.3123 116.412 19.806 115.591 20.1659C114.77 20.5258 113.829 20.7058 112.767 20.7058ZM120.161 18.0204V15.6602L126.078 6.33746H128.113V9.60424H126.909L123.178 15.508V15.6187H131.588V18.0204H120.161ZM126.964 20.512V17.3006L127.02 16.2555V6.33746H129.83V20.512H126.964ZM139.561 6.33746V20.512H136.564V9.18205H136.481L133.235 11.2169V8.55915L136.744 6.33746H139.561Z" fill="#4D4D4D"/>
<path d="M46.4538 30.4122H47.6245L50.3771 37.1356H50.4721L53.2247 30.4122H54.3954V38.512H53.4778V32.3581H53.3987L50.8676 38.512H49.9817L47.4505 32.3581H47.3714V38.512H46.4538V30.4122ZM58.7824 38.6385C58.1971 38.6385 57.6921 38.5093 57.2676 38.2509C56.8458 37.9899 56.5202 37.6261 56.2908 37.1594C56.064 36.6901 55.9506 36.1443 55.9506 35.522C55.9506 34.8998 56.064 34.3514 56.2908 33.8768C56.5202 33.3995 56.8392 33.0278 57.2479 32.7615C57.6592 32.4925 58.139 32.3581 58.6875 32.3581C59.0039 32.3581 59.3163 32.4108 59.6248 32.5163C59.9333 32.6217 60.2141 32.7931 60.4672 33.0304C60.7203 33.2651 60.922 33.5762 61.0723 33.9638C61.2226 34.3514 61.2977 34.8286 61.2977 35.3955V35.791H56.6151V34.9842H60.3485C60.3485 34.6414 60.28 34.3355 60.1429 34.0666C60.0084 33.7977 59.8159 33.5854 59.5655 33.4299C59.3176 33.2743 59.025 33.1965 58.6875 33.1965C58.3157 33.1965 57.994 33.2888 57.7225 33.4734C57.4535 33.6553 57.2466 33.8926 57.1015 34.1853C56.9565 34.4779 56.884 34.7917 56.884 35.1265V35.6644C56.884 36.1232 56.9631 36.5121 57.1213 36.8311C57.2821 37.1475 57.5049 37.3888 57.7897 37.5549C58.0745 37.7183 58.4053 37.8001 58.7824 37.8001C59.0276 37.8001 59.2491 37.7658 59.4468 37.6972C59.6472 37.6261 59.8199 37.5206 59.9649 37.3808C60.1099 37.2385 60.222 37.0618 60.3011 36.8509L61.2028 37.104C61.1079 37.4099 60.9484 37.6788 60.7243 37.9108C60.5001 38.1402 60.2233 38.3195 59.8937 38.4487C59.5641 38.5752 59.1937 38.6385 58.7824 38.6385ZM62.7176 38.512V32.4372H63.6193V33.3864H63.6984C63.8249 33.0621 64.0293 32.8103 64.3114 32.631C64.5935 32.449 64.9323 32.3581 65.3278 32.3581C65.7286 32.3581 66.0621 32.449 66.3284 32.631C66.5973 32.8103 66.807 33.0621 66.9572 33.3864H67.0205C67.1761 33.0726 67.4094 32.8234 67.7206 32.6389C68.0317 32.4517 68.4048 32.3581 68.8398 32.3581C69.3829 32.3581 69.8272 32.5281 70.1726 32.8683C70.518 33.2058 70.6907 33.7318 70.6907 34.4463V38.512H69.7573V34.4463C69.7573 33.9981 69.6347 33.6777 69.3895 33.4852C69.1443 33.2928 68.8556 33.1965 68.5234 33.1965C68.0963 33.1965 67.7654 33.3257 67.5307 33.5841C67.2961 33.8399 67.1787 34.1642 67.1787 34.557V38.512H66.2295V34.3514C66.2295 34.006 66.1175 33.7278 65.8934 33.5169C65.6693 33.3033 65.3805 33.1965 65.0272 33.1965C64.7847 33.1965 64.5579 33.2611 64.347 33.3903C64.1387 33.5195 63.9699 33.6988 63.8408 33.9282C63.7142 34.1549 63.6509 34.4173 63.6509 34.7152V38.512H62.7176ZM72.5238 38.512V30.4122H73.4572V33.4022H73.5363C73.6048 33.2967 73.6998 33.1622 73.821 32.9988C73.945 32.8327 74.1216 32.685 74.351 32.5558C74.583 32.424 74.8968 32.3581 75.2923 32.3581C75.8038 32.3581 76.2547 32.486 76.6449 32.7417C77.0351 32.9975 77.3396 33.36 77.5585 33.8293C77.7773 34.2986 77.8867 34.8523 77.8867 35.4904C77.8867 36.1337 77.7773 36.6914 77.5585 37.1633C77.3396 37.6326 77.0364 37.9965 76.6488 38.2549C76.2612 38.5106 75.8143 38.6385 75.3081 38.6385C74.9179 38.6385 74.6054 38.5739 74.3708 38.4447C74.1361 38.3129 73.9555 38.1639 73.829 37.9978C73.7024 37.8291 73.6048 37.6893 73.5363 37.5786H73.4256V38.512H72.5238ZM73.4414 35.4746C73.4414 35.9333 73.5086 36.3381 73.6431 36.6887C73.7775 37.0368 73.974 37.3097 74.2324 37.5074C74.4907 37.7025 74.8071 37.8001 75.1815 37.8001C75.5718 37.8001 75.8974 37.6972 76.1584 37.4916C76.4221 37.2833 76.6198 37.0038 76.7517 36.6531C76.8861 36.2998 76.9534 35.907 76.9534 35.4746C76.9534 35.0474 76.8874 34.6625 76.7556 34.3197C76.6264 33.9743 76.43 33.7014 76.1663 33.5011C75.9053 33.298 75.577 33.1965 75.1815 33.1965C74.8019 33.1965 74.4828 33.2928 74.2244 33.4852C73.9661 33.6751 73.7709 33.9414 73.6391 34.2841C73.5073 34.6243 73.4414 35.0211 73.4414 35.4746ZM81.8614 38.6385C81.2761 38.6385 80.7712 38.5093 80.3467 38.2509C79.9248 37.9899 79.5992 37.6261 79.3698 37.1594C79.1431 36.6901 79.0297 36.1443 79.0297 35.522C79.0297 34.8998 79.1431 34.3514 79.3698 33.8768C79.5992 33.3995 79.9182 33.0278 80.3269 32.7615C80.7382 32.4925 81.2181 32.3581 81.7665 32.3581C82.0829 32.3581 82.3954 32.4108 82.7038 32.5163C83.0123 32.6217 83.2931 32.7931 83.5462 33.0304C83.7994 33.2651 84.0011 33.5762 84.1513 33.9638C84.3016 34.3514 84.3768 34.8286 84.3768 35.3955V35.791H79.6941V34.9842H83.4276C83.4276 34.6414 83.359 34.3355 83.2219 34.0666C83.0875 33.7977 82.895 33.5854 82.6445 33.4299C82.3967 33.2743 82.104 33.1965 81.7665 33.1965C81.3948 33.1965 81.0731 33.2888 80.8015 33.4734C80.5326 33.6553 80.3256 33.8926 80.1806 34.1853C80.0356 34.4779 79.9631 34.7917 79.9631 35.1265V35.6644C79.9631 36.1232 80.0422 36.5121 80.2004 36.8311C80.3612 37.1475 80.584 37.3888 80.8687 37.5549C81.1535 37.7183 81.4844 37.8001 81.8614 37.8001C82.1066 37.8001 82.3281 37.7658 82.5259 37.6972C82.7263 37.6261 82.899 37.5206 83.044 37.3808C83.189 37.2385 83.301 37.0618 83.3801 36.8509L84.2819 37.104C84.1869 37.4099 84.0274 37.6788 83.8033 37.9108C83.5792 38.1402 83.3024 38.3195 82.9728 38.4487C82.6432 38.5752 82.2728 38.6385 81.8614 38.6385ZM85.7966 38.512V32.4372H86.6983V33.3547H86.7616C86.8723 33.0541 87.0727 32.8103 87.3628 32.6231C87.6528 32.4359 87.9797 32.3423 88.3436 32.3423C88.4121 32.3423 88.4978 32.3436 88.6007 32.3462C88.7035 32.3488 88.7813 32.3528 88.834 32.3581V33.3073C88.8024 33.2994 88.7299 33.2875 88.6165 33.2717C88.5057 33.2532 88.3884 33.244 88.2645 33.244C87.9692 33.244 87.7055 33.3059 87.4735 33.4299C87.2441 33.5511 87.0622 33.7199 86.9277 33.9361C86.7959 34.1497 86.73 34.3936 86.73 34.6678V38.512H85.7966ZM94.2434 33.7977L93.4049 34.035C93.3522 33.8952 93.2744 33.7594 93.1716 33.6276C93.0714 33.4931 92.9343 33.3824 92.7603 33.2954C92.5863 33.2084 92.3635 33.1649 92.0919 33.1649C91.7201 33.1649 91.4103 33.2506 91.1625 33.422C90.9173 33.5907 90.7947 33.8056 90.7947 34.0666C90.7947 34.2986 90.879 34.4819 91.0478 34.6163C91.2165 34.7508 91.4802 34.8629 91.8388 34.9525L92.7405 35.174C93.2836 35.3058 93.6884 35.5075 93.9547 35.7791C94.221 36.048 94.3541 36.3948 94.3541 36.8192C94.3541 37.1673 94.2539 37.4784 94.0535 37.7526C93.8558 38.0268 93.5789 38.243 93.223 38.4012C92.8671 38.5594 92.4531 38.6385 91.9811 38.6385C91.3615 38.6385 90.8487 38.5041 90.4427 38.2351C90.0366 37.9662 89.7796 37.5733 89.6715 37.0565L90.5574 36.8351C90.6417 37.162 90.8013 37.4072 91.0359 37.5707C91.2732 37.7342 91.583 37.8159 91.9653 37.8159C92.4004 37.8159 92.7458 37.7236 93.0015 37.539C93.2599 37.3518 93.3891 37.1277 93.3891 36.8667C93.3891 36.6558 93.3153 36.4791 93.1676 36.3367C93.02 36.1917 92.7932 36.0836 92.4874 36.0124L91.4749 35.7751C90.9186 35.6433 90.5099 35.439 90.2489 35.1621C89.9905 34.8826 89.8613 34.5333 89.8613 34.1141C89.8613 33.7713 89.9575 33.4681 90.15 33.2044C90.3451 32.9408 90.6101 32.7338 90.945 32.5835C91.2824 32.4332 91.6647 32.3581 92.0919 32.3581C92.693 32.3581 93.165 32.4899 93.5078 32.7536C93.8531 33.0172 94.0984 33.3653 94.2434 33.7977Z" fill="#717171"/>
</g>
<defs>
<clipPath id="clip0_211_2331">
<rect width="33.4113" height="33.4113" fill="white" transform="translate(0.924561 5.30627)"/>
</clipPath>
<clipPath id="clip1_211_2331">
<rect width="132.949" height="43" fill="white" transform="translate(45.473 0.511963)"/>
</clipPath>
</defs>
</svg>
