<svg width="178" height="44" viewBox="0 0 178 44" fill="none" xmlns="http://www.w3.org/2000/svg">
<path d="M4.13263 16.6343V16.9823H4.48066H29.5392H29.8872V16.6343V15.0681C29.8872 14.2835 29.5755 13.5311 29.0207 12.9763C28.4659 12.4215 27.7135 12.1098 26.9289 12.1098H7.09093C6.30634 12.1098 5.55388 12.4215 4.99909 12.9763C4.44431 13.5311 4.13263 14.2835 4.13263 15.0681V16.6343ZM29.8872 18.7225V18.3744H29.5392H4.48066H4.13263V18.7225V28.6415C4.13263 29.426 4.44431 30.1785 4.99909 30.7333C5.55388 31.2881 6.30634 31.5997 7.09093 31.5997H26.9289C27.7135 31.5997 28.4659 31.2881 29.0207 30.7333C29.5755 30.1785 29.8872 29.426 29.8872 28.6415V18.7225ZM2.74049 15.0681C2.74049 13.9143 3.19884 12.8077 4.0147 11.9919C4.83057 11.176 5.93712 10.7177 7.09093 10.7177H26.9289C28.0827 10.7177 29.1893 11.176 30.0051 11.9919C30.821 12.8077 31.2793 13.9143 31.2793 15.0681V28.6415C31.2793 29.7953 30.821 30.9018 30.0051 31.7177C29.1893 32.5335 28.0827 32.9919 26.9289 32.9919H7.09093C5.93712 32.9919 4.83057 32.5335 4.0147 31.7177C3.19884 30.9018 2.74049 29.7953 2.74049 28.6415V15.0681ZM22.2304 25.3351H25.3627C25.5474 25.3351 25.7244 25.4085 25.8549 25.539C25.9855 25.6695 26.0588 25.8466 26.0588 26.0312C26.0588 26.2158 25.9855 26.3929 25.8549 26.5234C25.7244 26.6539 25.5474 26.7273 25.3627 26.7273H22.2304C22.0458 26.7273 21.8688 26.6539 21.7382 26.5234C21.6077 26.3929 21.5344 26.2158 21.5344 26.0312C21.5344 25.8466 21.6077 25.6695 21.7382 25.539C21.8688 25.4085 22.0458 25.3351 22.2304 25.3351Z" fill="#4CAF4F" stroke="#4CAF4F" stroke-width="0.696069"/>
<g clip-path="url(#clip0_211_2353)">
<path d="M52.1684 6.18023V20.3547H49.1716V9.02482H49.0885L45.8425 11.0596V8.40192L49.3515 6.18023H52.1684ZM58.0081 18.4168L57.932 19.1781C57.872 19.7872 57.7567 20.394 57.586 20.9984C57.4199 21.6075 57.2445 22.1588 57.06 22.6526C56.88 23.1463 56.7347 23.5338 56.6239 23.8153H54.7137C54.7829 23.5431 54.8775 23.1624 54.9975 22.6733C55.1174 22.1888 55.2305 21.6444 55.3366 21.0399C55.4427 20.4355 55.5096 19.8195 55.5373 19.192L55.5719 18.4168H58.0081ZM65.5384 5.98644C66.2674 5.98644 66.9687 6.10871 67.6424 6.35326C68.3207 6.59781 68.9251 6.9877 69.4557 7.52293C69.991 8.05817 70.4131 8.76874 70.7223 9.65465C71.0361 10.5359 71.1952 11.6179 71.1999 12.9007C71.1999 14.1049 71.0637 15.18 70.7915 16.1259C70.5239 17.0672 70.1386 17.8677 69.6357 18.5276C69.1327 19.1874 68.526 19.6903 67.8154 20.0364C67.1048 20.3778 66.3112 20.5485 65.4345 20.5485C64.4886 20.5485 63.6535 20.3663 62.9291 20.0018C62.2047 19.6326 61.621 19.132 61.178 18.4999C60.7397 17.8631 60.4744 17.1479 60.3821 16.3543H63.3374C63.4528 16.8711 63.695 17.2725 64.0642 17.5586C64.4333 17.8401 64.8901 17.9808 65.4345 17.9808C66.3574 17.9808 67.0587 17.5794 67.5386 16.7765C68.0184 15.969 68.2607 14.864 68.2653 13.4613H68.1684C67.9561 13.8765 67.6701 14.2341 67.3102 14.5341C66.9503 14.8294 66.5373 15.0578 66.0713 15.2192C65.6099 15.3807 65.1185 15.4615 64.5971 15.4615C63.7619 15.4615 63.0168 15.2654 62.3615 14.8732C61.7063 14.481 61.1896 13.9411 60.8112 13.2536C60.4329 12.5661 60.2437 11.7817 60.2437 10.9005C60.2391 9.94995 60.4582 9.10326 60.9012 8.36039C61.3441 7.61752 61.9624 7.03615 62.7561 6.61626C63.5543 6.19177 64.4817 5.98182 65.5384 5.98644ZM65.5591 8.33963C65.0931 8.33963 64.6778 8.45037 64.3133 8.67184C63.9534 8.89332 63.6673 9.19093 63.4551 9.56467C63.2475 9.93841 63.1459 10.356 63.1506 10.8174C63.1506 11.2834 63.2521 11.7033 63.4551 12.077C63.6627 12.4462 63.9442 12.7415 64.2995 12.963C64.6594 13.1798 65.07 13.2882 65.5314 13.2882C65.8775 13.2882 66.1982 13.2236 66.4935 13.0945C66.7888 12.9653 67.0449 12.7876 67.2617 12.5615C67.4832 12.3308 67.6562 12.0655 67.7808 11.7656C67.9054 11.4657 67.9677 11.1473 67.9677 10.8105C67.9631 10.3629 67.8569 9.95226 67.6493 9.57851C67.4417 9.20477 67.1556 8.90486 66.7911 8.67876C66.4266 8.45267 66.0159 8.33963 65.5591 8.33963ZM73.2762 20.3547V18.1953L78.3217 13.5236C78.7508 13.1083 79.1107 12.7346 79.4014 12.4023C79.6967 12.0701 79.9205 11.7448 80.0728 11.4265C80.225 11.1035 80.3012 10.7551 80.3012 10.3814C80.3012 9.9661 80.2066 9.6085 80.0174 9.30859C79.8282 9.00406 79.5698 8.77105 79.2422 8.60955C78.9146 8.44345 78.5432 8.36039 78.1279 8.36039C77.6942 8.36039 77.3158 8.44806 76.9929 8.6234C76.6699 8.79873 76.4207 9.0502 76.2454 9.3778C76.07 9.7054 75.9824 10.0953 75.9824 10.5475H73.1378C73.1378 9.62004 73.3477 8.81488 73.7676 8.13199C74.1875 7.44911 74.7758 6.92079 75.5325 6.54705C76.2892 6.17331 77.1613 5.98644 78.1487 5.98644C79.1638 5.98644 80.0474 6.16639 80.7995 6.52629C81.5562 6.88157 82.1445 7.37528 82.5644 8.00741C82.9843 8.63954 83.1942 9.36396 83.1942 10.1807C83.1942 10.7159 83.0881 11.2442 82.8758 11.7656C82.6682 12.287 82.2968 12.8661 81.7615 13.5028C81.2263 14.1349 80.4719 14.894 79.4983 15.7799L77.4289 17.8078V17.9047H83.3811V20.3547H73.2762ZM90.9926 20.5485C90.2636 20.5439 89.5599 20.4216 88.8816 20.1817C88.208 19.9418 87.6035 19.5519 87.0683 19.012C86.5331 18.4722 86.1086 17.757 85.7948 16.8665C85.4857 15.976 85.3311 14.8824 85.3311 13.5859C85.3357 12.3954 85.4718 11.3319 85.7394 10.3952C86.0117 9.45393 86.3993 8.65569 86.9022 8.00049C87.4098 7.34529 88.0165 6.84697 88.7225 6.50552C89.4284 6.15947 90.2197 5.98644 91.0964 5.98644C92.0423 5.98644 92.8775 6.171 93.6019 6.54013C94.3263 6.90464 94.9077 7.40066 95.346 8.02818C95.789 8.65569 96.0566 9.35934 96.1489 10.1391H93.1935C93.0782 9.64542 92.8359 9.25783 92.4668 8.97637C92.0977 8.69491 91.6409 8.55418 91.0964 8.55418C90.1736 8.55418 89.4723 8.95561 88.9924 9.75846C88.5171 10.5613 88.2749 11.6525 88.2657 13.0322H88.3626C88.5748 12.6123 88.8609 12.2547 89.2208 11.9594C89.5853 11.6595 89.9983 11.4311 90.4597 11.2742C90.9257 11.1127 91.4171 11.032 91.9339 11.032C92.7736 11.032 93.5211 11.2304 94.1763 11.6272C94.8315 12.0194 95.3483 12.5592 95.7267 13.2467C96.105 13.9342 96.2942 14.7209 96.2942 15.6068C96.2942 16.5666 96.0704 17.4202 95.6228 18.1677C95.1799 18.9151 94.5593 19.5011 93.7611 19.9256C92.9674 20.3455 92.0446 20.5531 90.9926 20.5485ZM90.9788 18.1953C91.4402 18.1953 91.8531 18.0846 92.2176 17.8631C92.5822 17.6416 92.8682 17.3417 93.0759 16.9634C93.2835 16.585 93.3873 16.1605 93.3873 15.6899C93.3873 15.2192 93.2835 14.7971 93.0759 14.4233C92.8728 14.0496 92.5914 13.752 92.2315 13.5305C91.8716 13.309 91.4609 13.1983 90.9995 13.1983C90.6535 13.1983 90.3328 13.2629 90.0375 13.3921C89.7468 13.5213 89.4907 13.7012 89.2692 13.9319C89.0524 14.1626 88.8816 14.4302 88.7571 14.7348C88.6325 15.0347 88.5702 15.3554 88.5702 15.6968C88.5702 16.1536 88.674 16.5712 88.8816 16.9495C89.0939 17.3279 89.38 17.6301 89.7399 17.8562C90.1044 18.0823 90.5173 18.1953 90.9788 18.1953ZM101.061 18.4168L100.985 19.1781C100.925 19.7872 100.81 20.394 100.639 20.9984C100.473 21.6075 100.297 22.1588 100.113 22.6526C99.933 23.1463 99.7876 23.5338 99.6769 23.8153H97.7667C97.8359 23.5431 97.9305 23.1624 98.0504 22.6733C98.1704 22.1888 98.2834 21.6444 98.3896 21.0399C98.4957 20.4355 98.5626 19.8195 98.5903 19.192L98.6249 18.4168H101.061ZM103.515 17.8631V15.503L109.432 6.18023H111.467V9.44701H110.263L106.532 15.3507V15.4615H114.941V17.8631H103.515ZM110.318 20.3547V17.1433L110.374 16.0982V6.18023H113.184V20.3547H110.318ZM122.178 20.5485C121.144 20.5485 120.223 20.3709 119.416 20.0156C118.613 19.6557 117.979 19.162 117.513 18.5345C117.051 17.9023 116.814 17.1733 116.8 16.3474H119.817C119.836 16.6935 119.949 16.998 120.157 17.261C120.369 17.5194 120.65 17.7201 121.001 17.8631C121.352 18.0062 121.746 18.0777 122.184 18.0777C122.641 18.0777 123.045 17.9969 123.396 17.8354C123.746 17.6739 124.021 17.4502 124.219 17.1641C124.418 16.878 124.517 16.5481 124.517 16.1744C124.517 15.796 124.411 15.4615 124.199 15.1708C123.991 14.8755 123.691 14.6448 123.299 14.4787C122.911 14.3126 122.45 14.2295 121.915 14.2295H120.593V12.0286H121.915C122.367 12.0286 122.766 11.9502 123.112 11.7933C123.463 11.6364 123.735 11.4195 123.929 11.1427C124.122 10.8612 124.219 10.5336 124.219 10.1599C124.219 9.8046 124.134 9.49315 123.963 9.22553C123.797 8.9533 123.562 8.74105 123.257 8.58879C122.957 8.43652 122.607 8.36039 122.205 8.36039C121.799 8.36039 121.428 8.43422 121.091 8.58187C120.754 8.7249 120.484 8.93023 120.281 9.19785C120.078 9.46547 119.97 9.77923 119.956 10.1391H117.084C117.097 9.32243 117.33 8.60263 117.783 7.97973C118.235 7.35683 118.844 6.87004 119.61 6.51937C120.38 6.16408 121.25 5.98644 122.219 5.98644C123.197 5.98644 124.053 6.16408 124.787 6.51937C125.52 6.87465 126.09 7.35452 126.496 7.95896C126.907 8.5588 127.11 9.23246 127.105 9.97994C127.11 10.7736 126.863 11.4357 126.365 11.9663C125.871 12.4969 125.227 12.8338 124.434 12.9768V13.0875C125.477 13.2213 126.27 13.5835 126.815 14.1742C127.364 14.7601 127.636 15.4938 127.631 16.3751C127.636 17.1825 127.403 17.9 126.932 18.5276C126.466 19.1551 125.823 19.6488 125.001 20.0087C124.18 20.3686 123.239 20.5485 122.178 20.5485ZM135.226 20.5485C134.497 20.5439 133.793 20.4216 133.115 20.1817C132.441 19.9418 131.837 19.5519 131.301 19.012C130.766 18.4722 130.342 17.757 130.028 16.8665C129.719 15.976 129.564 14.8824 129.564 13.5859C129.569 12.3954 129.705 11.3319 129.972 10.3952C130.245 9.45393 130.632 8.65569 131.135 8.00049C131.643 7.34529 132.25 6.84697 132.955 6.50552C133.661 6.15947 134.453 5.98644 135.329 5.98644C136.275 5.98644 137.11 6.171 137.835 6.54013C138.559 6.90464 139.141 7.40066 139.579 8.02818C140.022 8.65569 140.29 9.35934 140.382 10.1391H137.427C137.311 9.64542 137.069 9.25783 136.7 8.97637C136.331 8.69491 135.874 8.55418 135.329 8.55418C134.407 8.55418 133.705 8.95561 133.225 9.75846C132.75 10.5613 132.508 11.6525 132.499 13.0322H132.596C132.808 12.6123 133.094 12.2547 133.454 11.9594C133.818 11.6595 134.231 11.4311 134.693 11.2742C135.159 11.1127 135.65 11.032 136.167 11.032C137.007 11.032 137.754 11.2304 138.409 11.6272C139.065 12.0194 139.581 12.5592 139.96 13.2467C140.338 13.9342 140.527 14.7209 140.527 15.6068C140.527 16.5666 140.303 17.4202 139.856 18.1677C139.413 18.9151 138.792 19.5011 137.994 19.9256C137.2 20.3455 136.278 20.5531 135.226 20.5485ZM135.212 18.1953C135.673 18.1953 136.086 18.0846 136.451 17.8631C136.815 17.6416 137.101 17.3417 137.309 16.9634C137.517 16.585 137.62 16.1605 137.62 15.6899C137.62 15.2192 137.517 14.7971 137.309 14.4233C137.106 14.0496 136.824 13.752 136.465 13.5305C136.105 13.309 135.694 13.1983 135.233 13.1983C134.886 13.1983 134.566 13.2629 134.271 13.3921C133.98 13.5213 133.724 13.7012 133.502 13.9319C133.285 14.1626 133.115 14.4302 132.99 14.7348C132.866 15.0347 132.803 15.3554 132.803 15.6968C132.803 16.1536 132.907 16.5712 133.115 16.9495C133.327 17.3279 133.613 17.6301 133.973 17.8562C134.337 18.0823 134.75 18.1953 135.212 18.1953Z" fill="#4D4D4D"/>
<path d="M45.8336 38.3547V30.255H48.5704C49.2059 30.255 49.7253 30.3697 50.1287 30.5991C50.5347 30.8258 50.8353 31.133 51.0304 31.5206C51.2255 31.9082 51.3231 32.3406 51.3231 32.8178C51.3231 33.295 51.2255 33.7288 51.0304 34.119C50.8379 34.5092 50.54 34.8203 50.1366 35.0524C49.7332 35.2817 49.2164 35.3964 48.5862 35.3964H46.6246V34.5264H48.5546C48.9897 34.5264 49.339 34.4512 49.6027 34.3009C49.8663 34.1506 50.0575 33.9476 50.1761 33.6919C50.2974 33.4335 50.3581 33.1421 50.3581 32.8178C50.3581 32.4935 50.2974 32.2035 50.1761 31.9477C50.0575 31.692 49.865 31.4916 49.5987 31.3466C49.3324 31.1989 48.9791 31.1251 48.5388 31.1251H46.8144V38.3547H45.8336ZM54.5641 38.4971C54.1792 38.4971 53.8298 38.4246 53.5161 38.2796C53.2023 38.1319 52.9532 37.9197 52.7686 37.6428C52.584 37.3634 52.4918 37.0259 52.4918 36.6304C52.4918 36.2823 52.5603 36.0002 52.6974 35.784C52.8345 35.5652 53.0178 35.3938 53.2471 35.2699C53.4765 35.146 53.7296 35.0537 54.0065 34.993C54.286 34.9298 54.5668 34.8797 54.8489 34.8427C55.218 34.7953 55.5173 34.7597 55.7467 34.736C55.9787 34.7096 56.1474 34.6661 56.2529 34.6055C56.361 34.5448 56.4151 34.4393 56.4151 34.2891V34.2574C56.4151 33.8672 56.3083 33.564 56.0947 33.3478C55.8838 33.1316 55.5634 33.0235 55.1337 33.0235C54.6881 33.0235 54.3387 33.121 54.0856 33.3161C53.8325 33.5113 53.6545 33.7195 53.5517 33.941L52.6658 33.6246C52.824 33.2555 53.0349 32.9681 53.2986 32.7625C53.5649 32.5542 53.8549 32.4091 54.1686 32.3274C54.485 32.243 54.7962 32.2008 55.102 32.2008C55.2971 32.2008 55.5212 32.2246 55.7744 32.272C56.0301 32.3169 56.2766 32.4105 56.5139 32.5528C56.7539 32.6952 56.9529 32.9101 57.1111 33.1975C57.2693 33.4849 57.3484 33.8698 57.3484 34.3523V38.3547H56.4151V37.5321H56.3676C56.3043 37.6639 56.1988 37.805 56.0512 37.9553C55.9035 38.1056 55.7071 38.2335 55.4619 38.3389C55.2167 38.4444 54.9174 38.4971 54.5641 38.4971ZM54.7065 37.6587C55.0756 37.6587 55.3868 37.5862 55.6399 37.4411C55.8956 37.2961 56.0881 37.1089 56.2173 36.8795C56.3491 36.6502 56.4151 36.4089 56.4151 36.1558V35.3015C56.3755 35.349 56.2885 35.3925 56.154 35.432C56.0222 35.4689 55.8693 35.5019 55.6953 35.5309C55.5239 35.5573 55.3564 35.581 55.193 35.6021C55.0321 35.6206 54.9016 35.6364 54.8014 35.6496C54.5589 35.6812 54.3321 35.7326 54.1212 35.8038C53.9129 35.8724 53.7441 35.9765 53.615 36.1162C53.4884 36.2533 53.4251 36.4405 53.4251 36.6778C53.4251 37.0021 53.5451 37.2474 53.785 37.4135C54.0276 37.5769 54.3348 37.6587 54.7065 37.6587ZM59.4356 40.6328C59.2774 40.6328 59.1364 40.6196 59.0125 40.5932C58.8885 40.5695 58.8028 40.5458 58.7554 40.522L58.9927 39.6994C59.2194 39.7574 59.4198 39.7785 59.5938 39.7627C59.7679 39.7469 59.9221 39.6691 60.0566 39.5294C60.1937 39.3922 60.3189 39.1695 60.4323 38.861L60.6063 38.3864L58.3599 32.2799H59.3724L61.0493 37.1208H61.1125L62.7894 32.2799H63.8019L61.2233 39.2406C61.1073 39.5544 60.9636 39.8141 60.7922 40.0198C60.6208 40.2281 60.4217 40.3823 60.195 40.4825C59.9709 40.5827 59.7178 40.6328 59.4356 40.6328ZM65.0339 38.3547V32.2799H65.9356V33.2291H66.0147C66.1412 32.9048 66.3456 32.653 66.6277 32.4737C66.9098 32.2918 67.2486 32.2008 67.6441 32.2008C68.0449 32.2008 68.3784 32.2918 68.6447 32.4737C68.9137 32.653 69.1233 32.9048 69.2736 33.2291H69.3368C69.4924 32.9154 69.7257 32.6662 70.0369 32.4817C70.348 32.2944 70.7211 32.2008 71.1561 32.2008C71.6992 32.2008 72.1435 32.3709 72.4889 32.711C72.8343 33.0485 73.007 33.5745 73.007 34.2891V38.3547H72.0736V34.2891C72.0736 33.8408 71.951 33.5205 71.7058 33.328C71.4606 33.1355 71.1719 33.0393 70.8397 33.0393C70.4126 33.0393 70.0817 33.1685 69.847 33.4269C69.6124 33.6826 69.495 34.0069 69.495 34.3998V38.3547H68.5458V34.1941C68.5458 33.8487 68.4338 33.5706 68.2097 33.3596C67.9856 33.1461 67.6968 33.0393 67.3435 33.0393C67.101 33.0393 66.8742 33.1039 66.6633 33.2331C66.455 33.3623 66.2863 33.5416 66.1571 33.771C66.0305 33.9977 65.9672 34.2601 65.9672 34.558V38.3547H65.0339ZM77.2606 38.4813C76.6752 38.4813 76.1703 38.3521 75.7458 38.0937C75.3239 37.8327 74.9983 37.4688 74.7689 37.0021C74.5422 36.5328 74.4288 35.987 74.4288 35.3648C74.4288 34.7426 74.5422 34.1941 74.7689 33.7195C74.9983 33.2423 75.3174 32.8706 75.726 32.6043C76.1373 32.3353 76.6172 32.2008 77.1656 32.2008C77.482 32.2008 77.7945 32.2536 78.103 32.359C78.4114 32.4645 78.6922 32.6359 78.9454 32.8732C79.1985 33.1078 79.4002 33.419 79.5505 33.8066C79.7007 34.1941 79.7759 34.6714 79.7759 35.2382V35.6337H75.0932V34.8269H78.8267C78.8267 34.4842 78.7582 34.1783 78.6211 33.9094C78.4866 33.6404 78.2941 33.4282 78.0436 33.2726C77.7958 33.1171 77.5031 33.0393 77.1656 33.0393C76.7939 33.0393 76.4722 33.1316 76.2006 33.3161C75.9317 33.4981 75.7247 33.7354 75.5797 34.028C75.4347 34.3207 75.3622 34.6345 75.3622 34.9693V35.5072C75.3622 35.966 75.4413 36.3549 75.5995 36.6739C75.7603 36.9903 75.9831 37.2315 76.2679 37.3976C76.5526 37.5611 76.8835 37.6428 77.2606 37.6428C77.5058 37.6428 77.7272 37.6086 77.925 37.54C78.1254 37.4688 78.2981 37.3634 78.4431 37.2236C78.5881 37.0812 78.7001 36.9046 78.7792 36.6937L79.681 36.9468C79.5861 37.2526 79.4265 37.5216 79.2024 37.7536C78.9783 37.983 78.7015 38.1623 78.3719 38.2915C78.0423 38.418 77.6719 38.4813 77.2606 38.4813ZM82.1291 34.7004V38.3547H81.1957V32.2799H82.0974V33.2291H82.1765C82.3189 32.9206 82.5351 32.6728 82.8252 32.4856C83.1152 32.2958 83.4896 32.2008 83.9484 32.2008C84.3597 32.2008 84.7196 32.2852 85.0281 32.454C85.3365 32.6201 85.5765 32.8732 85.7479 33.2133C85.9192 33.5508 86.0049 33.9779 86.0049 34.4947V38.3547H85.0716V34.558C85.0716 34.0808 84.9476 33.709 84.6998 33.4427C84.452 33.1738 84.1118 33.0393 83.6794 33.0393C83.3815 33.0393 83.1152 33.1039 82.8805 33.2331C82.6485 33.3623 82.4653 33.5508 82.3308 33.7986C82.1963 34.0465 82.1291 34.3471 82.1291 34.7004ZM90.3524 32.2799V33.0709H87.2043V32.2799H90.3524ZM88.1218 30.8245H89.0552V36.6146C89.0552 36.8782 89.0934 37.076 89.1699 37.2078C89.249 37.337 89.3492 37.424 89.4704 37.4688C89.5944 37.511 89.7249 37.5321 89.862 37.5321C89.9648 37.5321 90.0492 37.5268 90.1151 37.5163C90.181 37.5031 90.2337 37.4926 90.2733 37.4846L90.4631 38.3231C90.3999 38.3468 90.3115 38.3706 90.1981 38.3943C90.0848 38.4207 89.9411 38.4338 89.7671 38.4338C89.5034 38.4338 89.245 38.3771 88.9919 38.2638C88.7414 38.1504 88.5331 37.9777 88.367 37.7457C88.2035 37.5137 88.1218 37.221 88.1218 36.8677V30.8245ZM95.9506 33.6404L95.1122 33.8777C95.0594 33.738 94.9817 33.6022 94.8788 33.4704C94.7786 33.3359 94.6415 33.2252 94.4675 33.1382C94.2935 33.0512 94.0707 33.0077 93.7991 33.0077C93.4274 33.0077 93.1176 33.0933 92.8697 33.2647C92.6245 33.4335 92.5019 33.6484 92.5019 33.9094C92.5019 34.1414 92.5863 34.3247 92.755 34.4591C92.9238 34.5936 93.1874 34.7056 93.546 34.7953L94.4477 35.0168C94.9909 35.1486 95.3956 35.3503 95.6619 35.6219C95.9282 35.8908 96.0613 36.2375 96.0613 36.662C96.0613 37.0101 95.9612 37.3212 95.7608 37.5954C95.563 37.8696 95.2862 38.0858 94.9302 38.244C94.5743 38.4022 94.1603 38.4813 93.6884 38.4813C93.0688 38.4813 92.556 38.3468 92.1499 38.0779C91.7439 37.809 91.4868 37.4161 91.3787 36.8993L92.2646 36.6778C92.349 37.0048 92.5085 37.25 92.7432 37.4135C92.9805 37.5769 93.2903 37.6587 93.6726 37.6587C94.1076 37.6587 94.453 37.5664 94.7088 37.3818C94.9671 37.1946 95.0963 36.9705 95.0963 36.7095C95.0963 36.4986 95.0225 36.3219 94.8749 36.1795C94.7272 36.0345 94.5005 35.9264 94.1946 35.8552L93.1822 35.6179C92.6258 35.4861 92.2171 35.2817 91.9561 35.0049C91.6977 34.7254 91.5685 34.3761 91.5685 33.9568C91.5685 33.6141 91.6648 33.3109 91.8572 33.0472C92.0524 32.7835 92.3173 32.5766 92.6522 32.4263C92.9897 32.276 93.372 32.2008 93.7991 32.2008C94.4003 32.2008 94.8722 32.3327 95.215 32.5963C95.5604 32.86 95.8056 33.208 95.9506 33.6404Z" fill="#717171"/>
</g>
<defs>
<clipPath id="clip0_211_2353">
<rect width="132.949" height="43" fill="white" transform="translate(44.8528 0.354736)"/>
</clipPath>
</defs>
</svg>
