<svg width="29" height="28" viewBox="0 0 29 28" fill="none" xmlns="http://www.w3.org/2000/svg">
<g clip-path="url(#clip0_211_2512)">
<path fill-rule="evenodd" clip-rule="evenodd" d="M7.34882 0.0547485C11.1931 0.0547485 14.3095 3.17116 14.3095 7.01544V0.0547485H21.2702C25.1145 0.0547485 28.2309 3.17116 28.2309 7.01544C28.2309 10.8597 25.1145 13.9761 21.2702 13.9761C25.1145 13.9761 28.2309 17.0926 28.2309 20.9368C28.2309 22.8457 27.4625 24.5751 26.2182 25.8326L26.1922 25.8588L26.1691 25.8818C24.9113 27.1279 23.1806 27.8975 21.2702 27.8975C19.3728 27.8975 17.6527 27.1383 16.397 25.9071C16.3807 25.8911 16.3644 25.875 16.3482 25.8588C16.333 25.8436 16.3178 25.8283 16.3027 25.8129C15.0699 24.557 14.3095 22.8357 14.3095 20.9368C14.3095 24.7811 11.1931 27.8975 7.34882 27.8975C3.50453 27.8975 0.388123 24.7811 0.388123 20.9368V13.9761H7.34882C3.50453 13.9761 0.388123 10.8597 0.388123 7.01544C0.388123 3.17116 3.50453 0.0547485 7.34882 0.0547485ZM12.9174 7.01544C12.9174 10.0909 10.4243 12.584 7.34882 12.584V1.44689C10.4243 1.44689 12.9174 3.94001 12.9174 7.01544ZM26.8388 20.9368C26.8388 17.8614 24.3457 15.3683 21.2702 15.3683C18.1948 15.3683 15.7017 17.8614 15.7017 20.9368H26.8388ZM1.78026 15.3683V20.9368C1.78026 24.0123 4.27339 26.5054 7.34882 26.5054C10.4243 26.5054 12.9174 24.0123 12.9174 20.9368V15.3683H1.78026ZM15.7017 12.584V1.44689H21.2702C24.3457 1.44689 26.8388 3.94001 26.8388 7.01544C26.8388 10.0909 24.3457 12.584 21.2702 12.584H15.7017Z" fill="#5417D7"/>
</g>
<defs>
<clipPath id="clip0_211_2512">
<rect width="27.8428" height="27.8428" fill="white" transform="translate(0.388123 0.0547485)"/>
</clipPath>
</defs>
</svg>
